<?xml version="1.0" encoding="UTF-8"?> <svg xmlns="http://www.w3.org/2000/svg" viewBox="0 0 882 66" width="882" height="66"><style> tspan { white-space:pre } .shp0 { fill: #e6e6e6 } .shp1 { fill: #34d058 } .shp2 { fill: #ffffff } </style><path id="Layer" fill-rule="evenodd" class="shp0" d="M1.71 42.64C1.6 42.4 1.49 42.17 1.38 41.95C1.27 41.72 1.16 41.52 1.05 41.35C0.78 40.82 0.55 40.34 0.35 39.92C0.15 39.5 -0.04 39.01 -0.21 38.46C-0.14 38.08 -0.03 37.45 0.12 36.57C0.3 35.68 0.5 34.72 0.72 33.68C0.94 32.61 1.17 31.54 1.42 30.46C1.68 29.37 1.94 28.44 2.21 27.67C2.46 26.98 2.72 26.25 3.01 25.48C3.32 24.7 3.65 23.99 4.01 23.35C4.38 22.69 4.78 22.13 5.2 21.66C5.62 21.19 6.07 20.92 6.56 20.83C6.69 21 6.84 21.15 6.99 21.26C7.15 21.35 7.3 21.41 7.43 21.46C7.8 21.99 8.17 22.45 8.52 22.82C8.87 23.17 9.29 23.53 9.78 23.88C9.65 24.55 9.45 25.29 9.19 26.11C8.94 26.9 8.68 27.71 8.39 28.53C8.12 29.35 7.86 30.15 7.59 30.92C7.32 31.67 7.11 32.33 6.96 32.88C6.83 33.33 6.69 33.84 6.56 34.41C6.45 34.9 6.33 35.48 6.2 36.17C6.09 36.86 5.98 37.61 5.87 38.43C6.18 38.34 6.52 38.16 6.89 37.89C7.29 37.63 7.66 37.35 7.99 37.06C8.39 36.73 8.78 36.38 9.15 36C9.66 35.49 10.1 35.03 10.45 34.61C10.8 34.19 11.12 33.76 11.41 33.31C11.72 32.85 12.03 32.35 12.34 31.82C12.67 31.27 13.06 30.61 13.5 29.86C13.9 29.22 14.31 28.53 14.73 27.8C15.17 27.07 15.61 26.38 16.06 25.71C16.5 25.04 16.93 24.43 17.35 23.88C17.77 23.31 18.16 22.87 18.52 22.56C18.76 22.8 19.04 23.05 19.35 23.32C19.68 23.59 20.03 23.77 20.41 23.88C20.56 24.13 20.71 24.35 20.84 24.55C20.99 24.72 21.14 24.9 21.27 25.08C21.45 25.32 21.61 25.54 21.74 25.74C21.89 25.94 22.02 26.16 22.13 26.41C22.11 26.58 22.07 26.81 22 27.1C21.96 27.39 21.91 27.72 21.84 28.07C21.77 28.4 21.69 28.75 21.6 29.1C21.53 29.45 21.47 29.8 21.4 30.13C21.18 31.12 21.02 31.87 20.91 32.38C20.8 32.89 20.72 33.29 20.67 33.58C20.63 33.87 20.6 34.11 20.57 34.31C20.57 34.51 20.57 34.79 20.57 35.14C20.57 35.41 20.59 35.67 20.64 35.94C20.69 36.18 20.73 36.43 20.77 36.7C20.84 36.95 20.95 37.18 21.11 37.4L22.7 36.17C23.14 35.84 23.56 35.37 23.96 34.77C24.38 34.15 24.78 33.45 25.16 32.68C25.55 31.89 25.94 31.04 26.32 30.13C26.69 29.2 27.07 28.24 27.45 27.27C27.72 26.56 27.98 25.87 28.24 25.18C28.53 24.47 28.82 23.81 29.11 23.19C29.4 22.54 29.67 21.97 29.94 21.46C30.23 20.93 30.5 20.48 30.77 20.13C31.36 20.51 31.87 20.89 32.3 21.26C32.74 21.64 33.11 22.06 33.42 22.52C33.75 22.97 34.01 23.49 34.19 24.08C34.39 24.66 34.53 25.35 34.62 26.14C34.13 27.07 33.68 28.03 33.26 29C32.84 29.97 32.42 30.96 32 31.95C31.47 33.24 30.91 34.52 30.34 35.8C29.79 37.07 29.17 38.27 28.48 39.42C27.79 40.57 27.02 41.64 26.15 42.61C25.31 43.56 24.34 44.37 23.23 45.03C22.92 44.96 22.66 44.93 22.43 44.93C22.19 44.93 21.98 44.96 21.8 45.03C21.65 45.1 21.5 45.19 21.37 45.3C20.46 44.88 19.73 44.26 19.18 43.44C18.63 42.6 18.08 41.67 17.55 40.65C17.48 40.5 17.41 40.35 17.32 40.22C17.25 40.07 17.18 39.91 17.09 39.75L16.52 38.73L16.19 38.09L15.73 38.53L15.03 39.16L14.63 39.56C13.94 40.2 13.25 40.83 12.54 41.45C11.83 42.04 11.09 42.6 10.31 43.11C9.54 43.6 8.71 43.99 7.82 44.3C6.96 44.61 6.03 44.78 5.03 44.8C4.86 44.71 4.69 44.64 4.54 44.57C4.41 44.5 4.27 44.44 4.14 44.37C3.63 44.12 3.21 43.89 2.88 43.67C2.55 43.45 2.16 43.11 1.71 42.64ZM51.45 26.31C51.48 26.46 51.48 26.58 51.45 26.67C51.45 26.74 51.44 26.8 51.42 26.87C51.42 26.94 51.42 27.01 51.42 27.1C51.42 27.17 51.44 27.28 51.49 27.44C51.02 28.19 50.48 28.71 49.86 29C49.26 29.27 48.61 29.47 47.9 29.6C47.19 29.71 46.46 29.83 45.71 29.96C44.98 30.09 44.25 30.38 43.52 30.82C43.23 30.71 42.97 30.71 42.72 30.82C42.5 30.93 42.17 30.97 41.72 30.92C41.59 31.05 41.43 31.15 41.23 31.22C41.03 31.27 40.83 31.32 40.63 31.39C40.72 31.59 40.75 31.8 40.73 32.02C40.73 32.22 40.76 32.39 40.83 32.52C41.6 32.59 42.45 32.57 43.38 32.48C44.33 32.39 45.26 32.34 46.17 32.32C46.2 32.43 46.19 32.5 46.14 32.55C46.09 32.57 46.08 32.63 46.11 32.72C46.26 32.83 46.42 32.97 46.57 33.15C46.72 33.3 46.88 33.46 47.04 33.61C47.19 33.77 47.35 33.9 47.5 34.01C47.68 34.1 47.88 34.13 48.1 34.11C48.19 34.29 48.24 34.49 48.27 34.71C48.31 34.91 48.29 35.12 48.2 35.34C47.85 35.58 47.49 35.83 47.14 36.1C46.79 36.35 46.41 36.57 46.01 36.77C45.63 36.97 45.22 37.13 44.78 37.26C44.36 37.37 43.88 37.42 43.35 37.4C43.24 37.4 43.16 37.4 43.09 37.4C43.04 37.4 42.98 37.37 42.89 37.3C42.71 37.41 42.45 37.44 42.12 37.4C41.81 37.35 41.57 37.39 41.39 37.5C41.15 37.39 40.85 37.34 40.5 37.36C40.17 37.36 39.87 37.32 39.6 37.23C39.25 37.7 38.93 38.2 38.64 38.73C38.35 39.26 38.09 39.82 37.87 40.42C38.62 40.53 39.24 40.58 39.73 40.55C40.24 40.53 40.72 40.5 41.16 40.45C41.6 40.38 42.05 40.33 42.52 40.29C42.99 40.22 43.57 40.2 44.28 40.22C44.73 39.97 45.25 39.82 45.84 39.76C46.46 39.67 47.02 39.53 47.53 39.36C47.71 39.43 47.87 39.55 48 39.72C48.13 39.87 48.26 40.03 48.37 40.19C48.5 40.32 48.63 40.44 48.76 40.55C48.89 40.66 49.06 40.71 49.26 40.69C49.35 40.78 49.4 40.89 49.43 41.02C49.47 41.13 49.5 41.24 49.53 41.35C49.55 41.46 49.58 41.56 49.63 41.65C49.7 41.72 49.8 41.74 49.93 41.71C49.6 42.44 49.21 43.01 48.76 43.41C48.34 43.78 47.85 44.07 47.3 44.27C46.75 44.47 46.13 44.63 45.44 44.74C44.78 44.85 44.04 44.98 43.22 45.13C43.02 45.18 42.85 45.18 42.72 45.13C42.59 45.06 42.43 45.03 42.26 45.03C41.75 45.14 41.14 45.24 40.43 45.33C39.72 45.42 39 45.46 38.27 45.43C37.54 45.41 36.85 45.32 36.18 45.17C35.51 44.99 34.97 44.69 34.55 44.27C34.38 44.12 34.26 43.94 34.19 43.74C34.14 43.52 34 43.35 33.76 43.24C33.73 42.95 33.69 42.63 33.62 42.28C33.55 41.93 33.49 41.56 33.42 41.18C33.35 40.78 33.3 40.39 33.26 40.02C33.23 39.65 33.25 39.3 33.32 38.99C33.39 38.66 33.52 38.36 33.72 38.09C33.94 37.83 34.02 37.54 33.95 37.23C34.06 37.21 34.13 37.16 34.15 37.07C34.18 36.96 34.27 36.91 34.42 36.93C34.55 36.53 34.7 36.15 34.85 35.8C35 35.45 35.16 35.1 35.32 34.77C35.49 34.44 35.66 34.11 35.81 33.78C35.99 33.43 36.16 33.04 36.31 32.62C36 32.33 35.77 32.02 35.62 31.69C35.49 31.34 35.39 30.99 35.32 30.66C35.25 30.31 35.2 29.95 35.15 29.59C35.1 29.22 35.03 28.84 34.92 28.47C35.14 28.14 35.4 27.87 35.71 27.67C36.04 27.45 36.4 27.27 36.78 27.14C37.15 27.01 37.56 26.9 38.01 26.81C38.45 26.72 38.91 26.62 39.4 26.51C40.29 26.22 41.07 26 41.76 25.84C42.47 25.69 43.15 25.57 43.82 25.48C44.51 25.37 45.21 25.27 45.94 25.18C46.67 25.09 47.5 24.96 48.43 24.78C48.63 24.98 48.82 25.08 49 25.08C49.09 24.88 49.19 24.82 49.3 24.91C49.43 24.98 49.48 24.91 49.46 24.71C49.68 25.09 49.96 25.41 50.29 25.68C50.64 25.92 51.03 26.13 51.45 26.31ZM80.87 42.08L80.8 42.21C80.67 42.59 80.48 42.98 80.21 43.38C79.96 43.75 79.66 44.09 79.31 44.4C78.98 44.69 78.6 44.94 78.18 45.14C77.76 45.33 77.32 45.44 76.85 45.47C76.56 45.4 76.37 45.34 76.26 45.27C76.17 45.18 76.07 45.1 75.96 45.04C75.89 44.99 75.83 44.96 75.76 44.94C75.71 44.89 75.67 44.86 75.62 44.84L75.23 44.67L75.36 44.24C75.41 44.06 75.4 43.93 75.33 43.84C75.26 43.73 75.13 43.58 74.93 43.41C74.86 43.34 74.8 43.28 74.73 43.21C74.66 43.14 74.61 43.08 74.56 43.01L74 42.38L74.89 42.15C75.44 41.99 75.81 41.79 75.99 41.55C76.19 41.3 76.27 40.89 76.22 40.32C75.78 40.23 75.4 40.22 75.09 40.29C74.8 40.36 74.51 40.43 74.2 40.52C73.8 40.63 73.39 40.73 72.97 40.82C72.57 40.89 72.13 40.92 71.64 40.92C71.46 40.92 71.29 40.92 71.14 40.92C70.99 40.89 70.82 40.87 70.64 40.85L70.31 40.79C70.27 40.54 70.23 40.41 70.18 40.39C70.13 40.34 70.09 40.3 70.05 40.25C69.94 40.14 69.81 40 69.68 39.82C69.57 39.62 69.55 39.38 69.62 39.09C69.51 38.89 69.44 38.69 69.42 38.49C69.29 38.76 69.19 39.03 69.12 39.32L68.98 39.66L68.65 39.72C68.61 39.75 68.58 39.8 68.55 39.89C68.53 39.96 68.52 40.01 68.52 40.05L68.35 40.62C68.31 40.67 68.27 40.71 68.22 40.75C68.17 40.78 68.13 40.81 68.09 40.85C68.04 41.05 67.99 41.25 67.92 41.45C67.85 41.65 67.79 41.84 67.72 42.01C67.61 42.3 67.51 42.59 67.42 42.88C67.35 43.15 67.33 43.41 67.36 43.67L67.22 44.04C67.11 44.17 66.99 44.28 66.86 44.37C66.73 44.44 66.59 44.5 66.46 44.57C66.41 44.62 66.35 44.66 66.26 44.7C66.19 44.73 66.14 44.75 66.1 44.77L66 45.13L65.6 45.2C65.35 45.25 65.18 45.28 65.07 45.3C64.98 45.32 64.86 45.33 64.73 45.33L64.4 45.3C64.16 45.1 63.97 44.95 63.84 44.84C63.71 44.71 63.55 44.58 63.37 44.47C63.17 44.2 63.06 44 63.04 43.87C63.02 43.74 63 43.62 62.97 43.51C62.93 43.38 62.9 43.27 62.87 43.18C62.87 43.09 62.85 43.02 62.81 42.98L62.38 42.58L62.74 42.28L62.78 41.71C63.22 40.58 63.68 39.5 64.17 38.46C64.68 37.42 65.2 36.36 65.73 35.27C65.91 34.92 66.08 34.56 66.23 34.21C66.4 33.86 66.58 33.5 66.76 33.15C66.74 33.08 66.73 33.01 66.73 32.92C66.73 32.83 66.75 32.73 66.79 32.62C67.04 32.24 67.24 31.91 67.39 31.62C67.54 31.31 67.7 31 67.86 30.69C68.03 30.32 68.21 29.95 68.39 29.6C68.59 29.24 68.83 28.87 69.12 28.5L69.65 28.27C69.72 28.24 69.79 28.22 69.88 28.2C69.97 28.15 70.07 28.13 70.18 28.13L70.68 28.2C71.3 27.91 71.84 27.52 72.3 27.01C72.77 26.48 73.24 25.84 73.73 25.11L74.06 24.65L74.5 24.91C74.61 24.98 74.76 25.04 74.96 25.11C75.16 25.16 75.37 25.21 75.59 25.28C75.99 25.37 76.37 25.47 76.72 25.58C77.07 25.69 77.36 25.85 77.58 26.08C77.71 26.43 77.79 26.7 77.82 26.87C77.84 27.05 77.87 27.23 77.92 27.4C77.99 27.78 78.04 28.16 78.08 28.53C78.15 28.91 78.19 29.33 78.21 29.8C78.32 30.17 78.41 30.55 78.48 30.92C78.57 31.28 78.64 31.65 78.71 32.02C78.82 32.55 78.93 33.07 79.04 33.58C79.15 34.07 79.3 34.53 79.48 34.97C79.65 34.97 79.76 34.98 79.81 35.01C79.92 34.96 80.03 34.93 80.14 34.91C80.27 34.89 80.42 34.87 80.57 34.84L80.94 34.81L81.07 35.14C81.09 35.25 81.2 35.36 81.4 35.47C81.69 35.5 81.9 35.56 82.03 35.67C82.16 35.76 82.29 35.86 82.4 35.97C82.49 36.06 82.57 36.12 82.66 36.17L83.16 36.37L82.9 36.87C82.67 37.27 82.35 37.66 81.93 38.03C81.54 38.38 81.08 38.68 80.57 38.93C80.6 39.06 80.61 39.19 80.61 39.32C80.63 39.43 80.66 39.56 80.7 39.69C80.77 40.06 80.82 40.45 80.87 40.85C80.92 41.25 80.92 41.66 80.87 42.08ZM71.21 36.47C71.87 36.42 72.47 36.38 73 36.34C73.55 36.27 74.16 36.17 74.83 36.04C74.68 35.37 74.51 34.69 74.33 33.98C74.15 33.25 73.96 32.53 73.77 31.82L73.57 32.15C73.12 32.62 72.69 33.14 72.27 33.71C71.87 34.29 71.53 34.83 71.24 35.34C71.11 35.54 70.97 35.74 70.84 35.94C70.71 36.14 70.59 36.34 70.48 36.54C70.61 36.51 70.73 36.5 70.84 36.5C70.97 36.5 71.1 36.49 71.21 36.47ZM88.34 41.55C88.1 42.44 87.88 43.11 87.68 43.57C87.5 44.02 87.22 44.48 86.85 44.97C86.56 44.92 86.36 44.96 86.25 45.07C86.14 45.18 86.01 45.28 85.88 45.37C85.69 45.41 85.54 45.41 85.45 45.37C85.36 45.32 85.29 45.28 85.22 45.23C85.15 45.17 85.06 45.12 84.95 45.07C84.86 45 84.72 44.97 84.52 44.97C84.48 44.79 84.43 44.62 84.36 44.47C84.31 44.32 84.17 44.26 83.93 44.31C83.97 44.13 83.98 43.98 83.96 43.87C83.94 43.74 83.91 43.63 83.86 43.54C83.84 43.43 83.82 43.33 83.79 43.24C83.77 43.13 83.78 43 83.83 42.84C83.72 42.84 83.63 42.76 83.56 42.61C83.49 42.46 83.42 42.3 83.33 42.15C83.4 41.75 83.46 41.37 83.53 41.02C83.6 40.67 83.67 40.33 83.76 40.02C83.87 39.71 83.96 39.4 84.03 39.09C84.09 38.78 84.06 38.46 83.93 38.13C84.02 38.2 84.08 38.19 84.12 38.1C84.17 37.99 84.2 37.85 84.22 37.7C84.25 37.52 84.26 37.35 84.26 37.2C84.26 37.02 84.25 36.88 84.22 36.77C84.45 36.19 84.63 35.6 84.76 35.01C84.91 34.39 85.04 33.78 85.15 33.18C85.28 32.59 85.42 32 85.55 31.42C85.68 30.85 85.86 30.32 86.08 29.83C86.33 29.78 86.59 29.82 86.88 29.93C87.19 30.02 87.38 30.14 87.45 30.29C88.02 29.85 88.53 29.32 88.97 28.7C89.42 28.06 89.87 27.44 90.33 26.84C90.8 26.24 91.31 25.71 91.86 25.25C92.43 24.78 93.15 24.51 94.02 24.42C94.46 24.75 94.95 25.09 95.48 25.45C96.03 25.78 96.49 26.22 96.84 26.77C97.02 26.86 97.16 26.96 97.27 27.07C97.4 27.16 97.56 27.26 97.74 27.37L97.74 27.77C98.01 28.02 98.22 28.3 98.37 28.63C98.54 28.94 98.7 29.29 98.83 29.66C98.96 30.01 99.1 30.38 99.23 30.76C99.36 31.11 99.52 31.46 99.7 31.79C99.65 31.9 99.63 32 99.63 32.09C99.63 32.16 99.64 32.23 99.66 32.32C99.71 32.41 99.74 32.49 99.76 32.58C99.79 32.67 99.79 32.8 99.76 32.95C99.69 33.92 99.37 34.71 98.8 35.31C98.25 35.9 97.57 36.4 96.78 36.8C95.98 37.18 95.13 37.5 94.22 37.76C93.31 38.03 92.49 38.32 91.76 38.63C91.76 38.72 91.79 38.76 91.86 38.76C91.95 38.76 91.98 38.82 91.96 38.93C92.49 39.26 92.91 39.52 93.22 39.72C93.53 39.92 93.82 40.09 94.09 40.22C94.38 40.35 94.67 40.48 94.98 40.59C95.31 40.68 95.77 40.79 96.34 40.92C96.92 41.05 97.36 41.16 97.67 41.25C98 41.32 98.3 41.38 98.57 41.45C98.84 41.5 99.1 41.54 99.36 41.58C99.65 41.61 100.05 41.64 100.56 41.68C100.76 41.88 100.93 42.12 101.06 42.41C101.21 42.68 101.31 42.95 101.36 43.24C101.4 43.51 101.41 43.77 101.39 44.04C101.37 44.29 101.29 44.49 101.16 44.64C101.18 44.71 101.22 44.74 101.29 44.74C101.38 44.71 101.47 44.71 101.56 44.74C101.43 44.83 101.31 44.94 101.22 45.07C101.13 45.2 101.05 45.34 100.96 45.47C100.87 45.6 100.77 45.72 100.66 45.83C100.55 45.92 100.39 45.98 100.19 46C99.51 46.27 98.65 46.29 97.61 46.07C96.56 45.82 95.24 45.39 93.65 44.77C92.86 44.46 92.21 44.2 91.7 43.97C91.21 43.73 90.77 43.5 90.4 43.28C90.05 43.03 89.71 42.78 89.4 42.51C89.11 42.24 88.76 41.92 88.34 41.55ZM93.09 30.16C92.84 30.51 92.57 30.83 92.26 31.12C91.97 31.41 91.69 31.71 91.4 32.02C91.13 32.31 90.89 32.64 90.67 33.02C90.44 33.37 90.29 33.79 90.2 34.28C90.97 34.19 91.78 33.98 92.62 33.65C93.47 33.3 94.27 32.96 95.02 32.65C94.93 31.96 94.68 31.41 94.29 30.99C93.91 30.57 93.51 30.29 93.09 30.16ZM119.92 26.31C119.94 26.46 119.94 26.59 119.92 26.68C119.92 26.74 119.91 26.8 119.88 26.87C119.88 26.94 119.88 27.02 119.88 27.11C119.88 27.18 119.9 27.29 119.95 27.44C119.48 28.19 118.94 28.71 118.32 29C117.73 29.27 117.08 29.47 116.37 29.6C115.66 29.71 114.92 29.83 114.17 29.96C113.44 30.09 112.71 30.38 111.98 30.83C111.69 30.72 111.43 30.72 111.19 30.83C110.96 30.94 110.63 30.97 110.19 30.93C110.06 31.06 109.89 31.15 109.69 31.22C109.49 31.27 109.29 31.32 109.09 31.39C109.18 31.59 109.22 31.8 109.19 32.02C109.19 32.22 109.22 32.39 109.29 32.52C110.07 32.59 110.92 32.58 111.85 32.49C112.8 32.4 113.73 32.34 114.64 32.32C114.66 32.43 114.65 32.51 114.61 32.55C114.56 32.58 114.55 32.63 114.57 32.72C114.72 32.83 114.88 32.97 115.04 33.15C115.19 33.3 115.35 33.46 115.5 33.61C115.65 33.77 115.81 33.9 115.97 34.01C116.14 34.1 116.34 34.14 116.56 34.11C116.65 34.29 116.71 34.49 116.73 34.71C116.78 34.91 116.75 35.12 116.66 35.34C116.31 35.59 115.95 35.84 115.6 36.1C115.25 36.35 114.87 36.57 114.47 36.77C114.1 36.97 113.69 37.14 113.24 37.27C112.82 37.38 112.35 37.42 111.82 37.4C111.71 37.4 111.62 37.4 111.55 37.4C111.5 37.4 111.44 37.37 111.35 37.3C111.18 37.41 110.92 37.45 110.59 37.4C110.28 37.35 110.03 37.39 109.86 37.5C109.61 37.39 109.31 37.34 108.96 37.37C108.63 37.37 108.33 37.32 108.06 37.23C107.71 37.7 107.39 38.2 107.1 38.73C106.81 39.26 106.56 39.82 106.34 40.42C107.09 40.53 107.71 40.58 108.2 40.55C108.71 40.53 109.18 40.5 109.62 40.45C110.07 40.38 110.52 40.33 110.99 40.29C111.45 40.22 112.04 40.2 112.75 40.22C113.19 39.98 113.71 39.83 114.31 39.76C114.93 39.67 115.49 39.53 116 39.36C116.18 39.43 116.33 39.55 116.46 39.72C116.59 39.88 116.72 40.04 116.83 40.19C116.96 40.32 117.1 40.44 117.23 40.55C117.36 40.66 117.53 40.71 117.73 40.69C117.82 40.78 117.87 40.89 117.89 41.02C117.94 41.13 117.97 41.24 117.99 41.35C118.02 41.46 118.05 41.56 118.09 41.65C118.16 41.72 118.26 41.74 118.39 41.72C118.06 42.45 117.67 43.01 117.23 43.41C116.81 43.78 116.32 44.07 115.77 44.27C115.22 44.47 114.6 44.63 113.91 44.74C113.24 44.85 112.5 44.98 111.68 45.14C111.48 45.18 111.32 45.18 111.19 45.14C111.06 45.07 110.9 45.04 110.72 45.04C110.21 45.15 109.6 45.25 108.89 45.34C108.18 45.43 107.47 45.46 106.74 45.43C106.01 45.41 105.31 45.32 104.64 45.17C103.98 44.99 103.44 44.69 103.02 44.27C102.84 44.12 102.72 43.94 102.65 43.74C102.61 43.52 102.47 43.35 102.22 43.24C102.2 42.95 102.16 42.63 102.09 42.28C102.02 41.93 101.96 41.56 101.89 41.18C101.82 40.79 101.77 40.4 101.72 40.02C101.7 39.65 101.72 39.3 101.79 38.99C101.86 38.66 101.99 38.37 102.19 38.1C102.41 37.83 102.49 37.54 102.42 37.23C102.53 37.21 102.6 37.16 102.62 37.07C102.64 36.96 102.73 36.91 102.88 36.93C103.01 36.54 103.16 36.16 103.32 35.81C103.47 35.45 103.63 35.11 103.78 34.78C103.96 34.45 104.13 34.11 104.28 33.78C104.45 33.43 104.62 33.04 104.78 32.62C104.47 32.33 104.23 32.02 104.08 31.69C103.95 31.34 103.85 30.99 103.78 30.66C103.71 30.31 103.66 29.95 103.62 29.6C103.57 29.22 103.49 28.84 103.38 28.47C103.6 28.14 103.87 27.87 104.18 27.67C104.51 27.45 104.87 27.27 105.24 27.14C105.62 27.01 106.03 26.9 106.47 26.81C106.91 26.72 107.38 26.62 107.87 26.51C108.75 26.22 109.53 26 110.22 25.84C110.93 25.69 111.62 25.57 112.28 25.48C112.97 25.37 113.68 25.27 114.41 25.18C115.14 25.09 115.97 24.96 116.9 24.78C117.1 24.98 117.29 25.08 117.46 25.08C117.55 24.88 117.65 24.83 117.76 24.92C117.89 24.99 117.95 24.92 117.93 24.72C118.15 25.09 118.43 25.41 118.76 25.68C119.11 25.92 119.5 26.13 119.92 26.31ZM149.34 42.08L149.27 42.22C149.14 42.59 148.94 42.98 148.67 43.38C148.43 43.75 148.13 44.1 147.78 44.41C147.45 44.7 147.07 44.94 146.65 45.14C146.23 45.34 145.79 45.45 145.32 45.47C145.03 45.4 144.83 45.34 144.72 45.27C144.63 45.18 144.53 45.11 144.42 45.04C144.35 44.99 144.29 44.96 144.22 44.94C144.18 44.89 144.14 44.86 144.09 44.84L143.69 44.67L143.82 44.24C143.87 44.06 143.86 43.93 143.79 43.84C143.72 43.73 143.59 43.59 143.39 43.41C143.32 43.34 143.26 43.28 143.19 43.21C143.12 43.14 143.07 43.08 143.03 43.01L142.46 42.38L143.36 42.15C143.91 42 144.28 41.8 144.45 41.55C144.65 41.31 144.73 40.9 144.69 40.32C144.24 40.23 143.87 40.22 143.56 40.29C143.27 40.36 142.97 40.43 142.66 40.52C142.26 40.63 141.85 40.73 141.43 40.82C141.04 40.89 140.6 40.92 140.11 40.92C139.93 40.92 139.76 40.92 139.61 40.92C139.45 40.9 139.28 40.88 139.11 40.85L138.78 40.79C138.73 40.54 138.69 40.41 138.64 40.39C138.6 40.34 138.56 40.3 138.51 40.26C138.4 40.15 138.28 40 138.15 39.82C138.04 39.63 138.01 39.38 138.08 39.09C137.97 38.89 137.9 38.69 137.88 38.5C137.75 38.76 137.65 39.04 137.58 39.33L137.45 39.66L137.12 39.72C137.07 39.75 137.04 39.8 137.02 39.89C136.99 39.96 136.98 40.01 136.98 40.06L136.82 40.62C136.77 40.67 136.73 40.71 136.69 40.75C136.64 40.78 136.6 40.81 136.55 40.85C136.51 41.05 136.46 41.25 136.39 41.45C136.32 41.65 136.26 41.84 136.19 42.02C136.08 42.31 135.98 42.59 135.89 42.88C135.82 43.15 135.8 43.41 135.82 43.68L135.69 44.04C135.58 44.17 135.45 44.28 135.32 44.37C135.19 44.44 135.06 44.5 134.93 44.57C134.88 44.62 134.82 44.66 134.73 44.71C134.66 44.73 134.61 44.75 134.56 44.77L134.46 45.14L134.06 45.2C133.82 45.25 133.64 45.28 133.53 45.3C133.44 45.33 133.33 45.34 133.2 45.34L132.87 45.3C132.62 45.1 132.43 44.95 132.3 44.84C132.17 44.71 132.01 44.58 131.84 44.47C131.64 44.2 131.53 44 131.51 43.87C131.48 43.74 131.46 43.62 131.44 43.51C131.39 43.38 131.36 43.27 131.34 43.18C131.34 43.09 131.32 43.02 131.27 42.98L130.84 42.58L131.21 42.28L131.24 41.72C131.68 40.59 132.14 39.5 132.63 38.46C133.14 37.42 133.67 36.36 134.2 35.28C134.37 34.92 134.54 34.56 134.69 34.21C134.87 33.86 135.05 33.5 135.22 33.15C135.2 33.08 135.19 33.01 135.19 32.92C135.19 32.83 135.21 32.73 135.26 32.62C135.5 32.24 135.7 31.91 135.86 31.62C136.01 31.31 136.17 31 136.32 30.69C136.5 30.32 136.68 29.95 136.85 29.6C137.05 29.25 137.29 28.88 137.58 28.5L138.11 28.27C138.18 28.25 138.26 28.23 138.35 28.2C138.44 28.16 138.53 28.14 138.64 28.14L139.14 28.2C139.76 27.91 140.3 27.52 140.77 27.01C141.24 26.48 141.71 25.85 142.2 25.12L142.53 24.65L142.96 24.92C143.07 24.99 143.23 25.05 143.43 25.12C143.62 25.16 143.83 25.21 144.06 25.28C144.45 25.37 144.83 25.47 145.19 25.58C145.54 25.69 145.83 25.86 146.05 26.08C146.18 26.43 146.26 26.7 146.28 26.88C146.3 27.05 146.33 27.23 146.38 27.41C146.45 27.78 146.5 28.16 146.55 28.54C146.62 28.91 146.66 29.33 146.68 29.8C146.79 30.17 146.88 30.55 146.95 30.93C147.04 31.28 147.11 31.65 147.18 32.02C147.29 32.55 147.4 33.07 147.51 33.58C147.62 34.07 147.77 34.53 147.94 34.98C148.12 34.98 148.23 34.99 148.27 35.01C148.38 34.96 148.5 34.93 148.61 34.91C148.74 34.89 148.88 34.87 149.04 34.84L149.4 34.81L149.54 35.14C149.56 35.25 149.67 35.36 149.87 35.47C150.16 35.5 150.37 35.56 150.5 35.67C150.63 35.76 150.75 35.86 150.86 35.97C150.95 36.06 151.04 36.13 151.13 36.17L151.63 36.37L151.36 36.87C151.14 37.27 150.82 37.66 150.4 38.03C150 38.38 149.55 38.68 149.04 38.93C149.06 39.06 149.07 39.2 149.07 39.33C149.09 39.44 149.12 39.56 149.17 39.69C149.24 40.07 149.29 40.46 149.34 40.85C149.38 41.25 149.38 41.66 149.34 42.08ZM139.67 36.47C140.34 36.42 140.94 36.38 141.47 36.34C142.02 36.27 142.63 36.17 143.29 36.04C143.14 35.37 142.97 34.69 142.79 33.98C142.62 33.25 142.43 32.53 142.23 31.82L142.03 32.15C141.59 32.62 141.16 33.14 140.74 33.71C140.34 34.29 140 34.83 139.71 35.34C139.58 35.54 139.44 35.74 139.31 35.94C139.18 36.14 139.05 36.34 138.94 36.54C139.07 36.51 139.2 36.5 139.31 36.5C139.44 36.5 139.56 36.49 139.67 36.47ZM167.3 45.37C166.66 45.22 166.16 44.96 165.8 44.61C165.47 44.23 165.22 43.8 165.04 43.31C164.89 42.8 164.78 42.25 164.71 41.65C164.66 41.05 164.61 40.43 164.54 39.79C164.63 39.5 164.74 39.26 164.87 39.06C165.03 38.86 165.1 38.58 165.07 38.23C165.32 37.52 165.54 36.84 165.74 36.17C165.94 35.51 166.07 34.82 166.14 34.11C166.27 33.92 166.41 33.79 166.54 33.72C166.71 32.45 166.73 31.16 166.6 29.83C166.47 28.5 166.25 27.28 165.94 26.15C165.96 25.9 165.99 25.72 166.04 25.61C166.08 25.48 166.08 25.37 166.04 25.28C165.99 25.08 166.06 24.98 166.24 24.98C166.41 24.98 166.59 24.98 166.77 24.98C166.77 24.59 166.69 24.2 166.54 23.82C166.41 23.42 166.27 22.97 166.14 22.46C166.31 22.06 166.43 21.67 166.5 21.3C166.57 20.92 166.69 20.58 166.87 20.27C167.58 20.49 168.27 20.74 168.96 21.03C169.65 21.32 170.32 21.61 170.98 21.9C171.65 22.16 172.3 22.42 172.94 22.69C173.59 22.94 174.22 23.14 174.84 23.29C175.79 23.98 176.76 24.66 177.76 25.35C178.78 26.01 179.7 26.75 180.51 27.57C181.36 28.37 182.06 29.29 182.61 30.33C183.16 31.37 183.48 32.6 183.57 34.01C183.52 34.14 183.49 34.26 183.47 34.35C183.45 34.44 183.43 34.52 183.4 34.61C183.38 34.7 183.37 34.8 183.37 34.91C183.37 35.02 183.37 35.18 183.37 35.38C182.57 36.77 181.56 37.95 180.35 38.9C179.13 39.85 177.8 40.69 176.36 41.42C174.92 42.15 173.42 42.82 171.85 43.44C170.3 44.04 168.78 44.68 167.3 45.37ZM170.55 26.54C170.35 26.54 170.21 26.59 170.12 26.68C170.39 27.67 170.59 28.61 170.72 29.5C170.85 30.39 170.92 31.27 170.92 32.16C170.94 33.04 170.9 33.95 170.79 34.88C170.68 35.81 170.52 36.81 170.32 37.9C170.61 37.88 170.86 37.82 171.08 37.73C171.31 37.64 171.53 37.54 171.75 37.43C171.99 37.32 172.23 37.23 172.48 37.14C172.75 37.05 173.04 36.99 173.37 36.97C173.46 36.79 173.58 36.66 173.71 36.57C173.86 36.46 174 36.35 174.11 36.24C174.66 36.02 175.22 35.79 175.77 35.54C176.32 35.3 176.83 35.02 177.29 34.71C177.76 34.4 178.18 34.05 178.55 33.65C178.93 33.25 179.24 32.77 179.48 32.22C179.31 31.89 179.09 31.61 178.82 31.39C178.58 31.15 178.31 30.92 178.02 30.69C177.76 30.45 177.5 30.21 177.23 29.96C176.98 29.7 176.78 29.4 176.63 29.07C176.28 29.02 175.97 28.93 175.7 28.8C175.43 28.65 175.18 28.5 174.94 28.37C174.69 28.22 174.43 28.07 174.14 27.94C173.87 27.81 173.55 27.73 173.18 27.71C172.6 27.4 172.08 27.19 171.62 27.08C171.15 26.95 170.8 26.77 170.55 26.54ZM202.59 26.31C202.62 26.46 202.62 26.59 202.59 26.68C202.59 26.75 202.58 26.81 202.56 26.88C202.56 26.95 202.56 27.02 202.56 27.11C202.56 27.18 202.58 27.29 202.63 27.44C202.16 28.19 201.62 28.71 201 29C200.4 29.27 199.75 29.47 199.04 29.6C198.33 29.71 197.6 29.83 196.85 29.96C196.12 30.09 195.39 30.38 194.66 30.83C194.37 30.72 194.11 30.72 193.86 30.83C193.64 30.94 193.31 30.97 192.87 30.93C192.74 31.06 192.57 31.16 192.37 31.23C192.17 31.27 191.97 31.32 191.77 31.39C191.86 31.59 191.89 31.8 191.87 32.02C191.87 32.22 191.9 32.39 191.97 32.52C192.74 32.59 193.6 32.58 194.53 32.49C195.48 32.4 196.4 32.35 197.31 32.32C197.34 32.43 197.33 32.51 197.28 32.55C197.23 32.58 197.22 32.63 197.25 32.72C197.4 32.83 197.56 32.98 197.71 33.15C197.87 33.3 198.03 33.46 198.18 33.62C198.33 33.77 198.49 33.91 198.64 34.02C198.82 34.11 199.02 34.14 199.24 34.12C199.33 34.29 199.38 34.49 199.41 34.71C199.45 34.91 199.43 35.12 199.34 35.34C198.99 35.59 198.63 35.84 198.28 36.11C197.93 36.35 197.55 36.57 197.15 36.77C196.77 36.97 196.36 37.14 195.92 37.27C195.5 37.38 195.02 37.43 194.49 37.4C194.38 37.4 194.3 37.4 194.23 37.4C194.18 37.4 194.12 37.37 194.03 37.3C193.85 37.41 193.59 37.45 193.26 37.4C192.95 37.36 192.71 37.39 192.53 37.5C192.29 37.39 191.99 37.35 191.64 37.37C191.31 37.37 191.01 37.33 190.74 37.24C190.39 37.7 190.07 38.2 189.78 38.73C189.49 39.26 189.24 39.83 189.01 40.42C189.76 40.53 190.38 40.58 190.87 40.56C191.38 40.53 191.86 40.5 192.3 40.46C192.74 40.39 193.19 40.34 193.66 40.29C194.13 40.22 194.71 40.2 195.42 40.22C195.87 39.98 196.39 39.83 196.98 39.76C197.6 39.67 198.17 39.54 198.68 39.36C198.85 39.43 199.01 39.55 199.14 39.73C199.27 39.88 199.4 40.04 199.51 40.19C199.64 40.32 199.77 40.45 199.9 40.56C200.03 40.67 200.2 40.71 200.4 40.69C200.49 40.78 200.54 40.89 200.57 41.02C200.61 41.13 200.64 41.24 200.67 41.35C200.69 41.46 200.72 41.56 200.77 41.65C200.84 41.72 200.94 41.74 201.07 41.72C200.74 42.45 200.35 43.01 199.9 43.41C199.48 43.79 198.99 44.08 198.44 44.28C197.89 44.47 197.27 44.63 196.58 44.74C195.92 44.85 195.18 44.99 194.36 45.14C194.16 45.18 193.99 45.18 193.86 45.14C193.73 45.07 193.57 45.04 193.4 45.04C192.89 45.15 192.28 45.25 191.57 45.34C190.86 45.43 190.14 45.46 189.41 45.44C188.68 45.41 187.99 45.32 187.32 45.17C186.65 45 186.11 44.7 185.69 44.27C185.52 44.12 185.4 43.94 185.33 43.74C185.28 43.52 185.14 43.36 184.9 43.25C184.87 42.96 184.83 42.63 184.76 42.28C184.69 41.93 184.63 41.56 184.56 41.19C184.49 40.79 184.44 40.4 184.4 40.02C184.38 39.65 184.4 39.31 184.46 39C184.53 38.67 184.66 38.37 184.86 38.1C185.09 37.83 185.17 37.55 185.1 37.24C185.21 37.21 185.27 37.16 185.29 37.07C185.32 36.96 185.41 36.91 185.56 36.94C185.69 36.54 185.84 36.16 185.99 35.81C186.14 35.46 186.3 35.11 186.46 34.78C186.63 34.45 186.8 34.11 186.96 33.78C187.13 33.43 187.3 33.04 187.45 32.62C187.14 32.33 186.91 32.02 186.76 31.69C186.63 31.34 186.53 30.99 186.46 30.66C186.39 30.31 186.34 29.95 186.29 29.6C186.24 29.22 186.17 28.84 186.06 28.47C186.28 28.14 186.55 27.87 186.86 27.67C187.19 27.45 187.54 27.27 187.92 27.14C188.29 27.01 188.7 26.9 189.15 26.81C189.59 26.72 190.05 26.62 190.54 26.51C191.43 26.22 192.21 26 192.9 25.85C193.61 25.69 194.29 25.57 194.96 25.48C195.65 25.37 196.35 25.27 197.08 25.18C197.81 25.09 198.64 24.96 199.57 24.78C199.77 24.98 199.96 25.08 200.14 25.08C200.23 24.89 200.33 24.83 200.44 24.92C200.57 24.99 200.62 24.92 200.6 24.72C200.82 25.09 201.1 25.41 201.43 25.68C201.78 25.93 202.17 26.14 202.59 26.31ZM212.85 39.16C212.83 39.47 212.75 39.77 212.62 40.06C212.51 40.33 212.36 40.59 212.19 40.86C212.01 41.1 211.81 41.34 211.59 41.59C211.39 41.81 211.19 42.01 210.99 42.18C211.06 42.47 211.06 42.7 210.99 42.85C210.95 42.98 210.94 43.19 210.96 43.48C210.63 44.37 210.12 44.96 209.43 45.27C208.77 45.56 208.14 45.49 207.54 45.07C207.3 44.9 207.09 44.68 206.91 44.41C206.76 44.12 206.54 43.95 206.25 43.88C206.32 43.5 206.28 43.12 206.15 42.75C206.02 42.37 205.87 42.17 205.71 42.15C205.64 41.68 205.55 41.19 205.42 40.66C205.29 40.13 205.16 39.59 205.05 39.06C204.94 38.51 204.84 37.98 204.75 37.47C204.68 36.94 204.66 36.45 204.69 36.01C204.71 35.79 204.66 35.59 204.55 35.41C204.46 35.23 204.4 35.02 204.35 34.78C204.26 34.27 204.23 33.74 204.25 33.19C204.3 32.61 204.32 32.07 204.32 31.56C204.32 31.07 204.29 30.55 204.22 30C204.17 29.42 204.13 28.88 204.09 28.37C204.04 27.84 204.02 27.36 204.02 26.94C204.02 26.5 204.08 26.16 204.19 25.91C204.32 25.65 204.5 25.44 204.72 25.28C204.96 25.11 205.18 24.92 205.38 24.72C205.87 24.77 206.26 24.97 206.55 25.32C206.84 25.67 206.95 26 206.88 26.31C207.34 26.6 207.7 26.97 207.97 27.44C208.26 27.89 208.48 28.4 208.64 28.97C208.81 29.52 208.93 30.12 209 30.76C209.07 31.38 209.12 32 209.17 32.62C209.21 33.22 209.25 33.8 209.3 34.35C209.35 34.9 209.44 35.38 209.57 35.78C210.38 34.61 211.07 33.56 211.63 32.65C212.18 31.72 212.75 30.84 213.32 30C213.89 29.16 214.53 28.31 215.24 27.44C215.95 26.58 216.87 25.61 218 24.52C218.22 24.54 218.4 24.58 218.53 24.65C218.68 24.72 218.82 24.77 218.93 24.82C219.04 24.87 219.18 24.91 219.33 24.95C219.48 24.97 219.69 24.96 219.96 24.92C220.05 25.14 220.11 25.31 220.16 25.42C220.2 25.51 220.23 25.61 220.26 25.72C220.3 25.81 220.34 25.93 220.39 26.08C220.46 26.23 220.56 26.45 220.69 26.74C220.76 26.81 220.78 26.9 220.76 27.01C220.73 27.12 220.71 27.23 220.69 27.34C220.69 27.43 220.69 27.5 220.69 27.54C220.69 27.59 220.75 27.59 220.86 27.54C220.79 27.85 220.67 28.14 220.49 28.4C220.34 28.65 220.27 28.95 220.29 29.3C219.78 29.97 219.22 30.65 218.6 31.36C218 32.07 217.39 32.8 216.77 33.55C216.17 34.3 215.59 35.1 215.04 35.94C214.49 36.76 214.01 37.62 213.62 38.53C213.51 38.53 213.42 38.56 213.35 38.63C213.3 38.7 213.26 38.77 213.22 38.86C213.17 38.93 213.12 38.99 213.05 39.06C213.01 39.13 212.94 39.16 212.85 39.16ZM226.3 45.14C225.33 45.27 224.44 45.23 223.64 45.01C222.85 44.78 222.13 44.44 221.49 43.98C220.87 43.51 220.33 42.96 219.86 42.32C219.42 41.67 219.05 40.99 218.76 40.26C218.56 38.75 218.62 37.39 218.93 36.17C219.24 34.93 219.69 33.79 220.29 32.75C220.89 31.71 221.57 30.74 222.32 29.83C223.09 28.92 223.83 28.05 224.54 27.21C224.69 27.28 224.82 27.28 224.91 27.21C225.02 27.14 225.1 27.05 225.17 26.94C225.26 26.83 225.35 26.72 225.44 26.61C225.55 26.5 225.67 26.43 225.8 26.38C225.89 26.18 226 26.01 226.13 25.88C226.29 25.75 226.45 25.63 226.6 25.52C226.78 25.39 226.93 25.25 227.06 25.12C227.22 24.99 227.35 24.82 227.46 24.62C227.69 24.57 227.88 24.5 228.03 24.39C228.2 24.28 228.36 24.15 228.49 24.02C228.64 23.89 228.8 23.77 228.96 23.66C229.11 23.55 229.3 23.46 229.52 23.39L229.52 22.96C230.01 22.74 230.36 22.5 230.58 22.23C230.81 21.96 231.07 21.62 231.38 21.2C231.63 21.18 231.82 21.17 231.95 21.17C232.1 21.17 232.33 21.15 232.64 21.1C232.84 20.73 233.03 20.45 233.21 20.27C233.38 20.09 233.64 19.89 233.97 19.67C234.3 19.85 234.66 19.96 235.03 20C235.41 20.03 235.75 20.19 236.06 20.5C236.09 20.77 236.17 20.98 236.3 21.13C236.43 21.26 236.57 21.4 236.73 21.53C236.88 21.64 237.04 21.77 237.19 21.9C237.34 22.03 237.44 22.22 237.49 22.46C237.6 22.46 237.67 22.44 237.69 22.4C237.74 22.35 237.81 22.34 237.92 22.36C237.97 22.54 238.01 22.68 238.05 22.79C238.1 22.9 238.14 23 238.19 23.09C238.26 23.18 238.31 23.28 238.35 23.39C238.42 23.5 238.47 23.64 238.52 23.79C238.41 24.06 238.31 24.34 238.22 24.65C238.13 24.94 237.96 25.14 237.69 25.25C237.69 25.43 237.76 25.53 237.89 25.55C238.02 25.55 238.1 25.63 238.12 25.78C238.14 25.98 238.11 26.15 238.02 26.28C238.64 27.32 239.2 28.42 239.71 29.57C240.22 30.7 240.8 31.78 241.44 32.82C241.39 33.13 241.4 33.44 241.47 33.75C241.56 34.04 241.66 34.32 241.77 34.61C241.9 34.9 242.03 35.19 242.14 35.48C242.25 35.77 242.32 36.05 242.37 36.34C242.42 36.72 242.42 37.13 242.37 37.57C242.32 37.99 242.24 38.4 242.11 38.8C241.98 39.2 241.8 39.58 241.57 39.93C241.35 40.26 241.1 40.51 240.81 40.69C240.46 41.13 240.01 41.5 239.48 41.79C238.95 42.05 238.47 42.37 238.02 42.75C237.71 42.92 237.38 43.06 237.03 43.15C236.67 43.22 236.3 43.29 235.93 43.38C235.64 43.56 235.3 43.74 234.9 43.91C234.5 44.06 234.09 44.21 233.67 44.34C233.25 44.47 232.83 44.58 232.41 44.67C231.99 44.74 231.61 44.75 231.28 44.71C230.49 45 229.71 45.2 228.96 45.31C228.21 45.42 227.32 45.36 226.3 45.14ZM226.73 33.05C226.51 33.56 226.25 34.03 225.94 34.45C225.65 34.85 225.36 35.26 225.07 35.68C224.78 36.1 224.53 36.55 224.31 37.04C224.11 37.5 224 38.05 223.98 38.7C224.42 39.07 224.94 39.31 225.54 39.4C226.16 39.46 226.79 39.47 227.43 39.43C228.07 39.36 228.71 39.27 229.36 39.16C230 39.05 230.57 39 231.08 39C231.08 38.8 231.17 38.7 231.35 38.7C232.28 38.61 233.14 38.36 233.94 37.93C234.73 37.49 235.56 37.05 236.43 36.61C236.54 36.34 236.68 36.11 236.86 35.91C237.03 35.71 237.13 35.42 237.16 35.05C237.05 34.85 236.97 34.68 236.93 34.55C236.9 34.42 236.89 34.22 236.89 33.95C236.32 33.15 235.82 32.29 235.4 31.36C234.98 30.41 234.49 29.51 233.94 28.67C233.89 28.78 233.8 28.89 233.67 29C233.54 29.11 233.39 29.09 233.24 28.94C233.17 29.16 233.07 29.31 232.94 29.4C232.81 29.47 232.65 29.5 232.48 29.5C232.32 29.5 232.15 29.47 231.98 29.4C231.83 29.33 231.68 29.25 231.55 29.14C230.77 29.76 229.99 30.36 229.22 30.93C228.47 31.5 227.78 32.18 227.16 32.95C227.05 33.02 226.99 33.04 226.96 33.02C226.94 33 226.86 33.01 226.73 33.05ZM256.12 24.42C257.05 24.53 257.88 24.72 258.61 24.99C259.34 25.25 259.96 25.6 260.47 26.05C260.82 26.6 261.15 27.2 261.46 27.84C261.76 28.41 261.98 29.01 262.14 29.64C262.28 29.35 262.46 29.1 262.69 28.87C263.04 28.54 263.42 28.26 263.82 28.04C264.24 27.8 264.67 27.6 265.12 27.44C265.56 27.29 265.98 27.15 266.38 27.04C267.27 26.67 268.21 26.31 269.2 25.98C270.22 25.63 271.25 25.32 272.29 25.05C273.35 24.78 274.43 24.62 275.54 24.55C276.65 24.46 277.81 24.6 279.03 24.95C279.1 25.18 279.2 25.39 279.33 25.58C279.46 25.78 279.59 25.98 279.72 26.18C279.88 26.38 280.01 26.58 280.12 26.78C280.23 26.96 280.3 27.15 280.32 27.34C280.54 27.54 280.72 27.76 280.85 28.01C280.98 28.23 281.01 28.53 280.92 28.9C280.7 29.08 280.48 29.25 280.26 29.4C280.06 29.53 279.84 29.66 279.59 29.77C278.77 29.57 277.94 29.5 277.1 29.57C276.26 29.64 275.51 29.69 274.84 29.73C274.65 29.54 274.4 29.44 274.11 29.44C273.84 29.44 273.56 29.48 273.25 29.57C272.96 29.66 272.66 29.74 272.35 29.83C272.06 29.92 271.79 29.95 271.52 29.9C271.3 30.08 271.02 30.2 270.69 30.27C270.38 30.31 270.04 30.35 269.66 30.4C269.64 30.51 269.66 30.58 269.73 30.63C269.8 30.65 269.81 30.72 269.76 30.83C269.89 30.98 270.06 31.09 270.26 31.16C270.48 31.23 270.7 31.29 270.93 31.36C271.17 31.43 271.38 31.52 271.56 31.63C271.73 31.72 271.85 31.87 271.92 32.09C272.25 32.09 272.54 32.17 272.79 32.32C273.03 32.48 273.23 32.67 273.38 32.89C273.54 33.11 273.65 33.35 273.71 33.62C273.8 33.86 273.85 34.08 273.85 34.28C273.92 34.46 273.99 34.54 274.08 34.52C274.17 34.49 274.27 34.54 274.38 34.65C274.45 34.94 274.61 35.23 274.88 35.54C275.15 35.83 275.36 36.16 275.51 36.51C275.55 37.06 275.58 37.56 275.61 38C275.63 38.42 275.55 38.85 275.37 39.3C275.04 40.12 274.58 40.85 273.98 41.49C273.41 42.13 272.74 42.7 271.99 43.21C271.26 43.7 270.47 44.13 269.63 44.48C268.79 44.83 267.97 45.13 267.17 45.37C267.08 45.35 267 45.35 266.91 45.37C266.82 45.4 266.8 45.34 266.84 45.21C266.67 45.36 266.47 45.46 266.24 45.51C266.04 45.55 265.82 45.57 265.58 45.57C265.33 45.55 265.08 45.53 264.82 45.51C264.57 45.48 264.34 45.49 264.12 45.54C263.97 45.39 263.82 45.24 263.69 45.11C263.58 44.95 263.49 44.76 263.42 44.54C263.31 44.54 263.26 44.49 263.26 44.38C263.28 44.27 263.25 44.21 263.16 44.21C263.29 43.99 263.35 43.87 263.32 43.85C263.32 43.8 263.29 43.77 263.22 43.75C263.18 43.72 263.14 43.7 263.09 43.68C263.04 43.63 263.03 43.58 263.06 43.51C263.15 43.34 263.18 43.14 263.16 42.92C263.13 42.67 263.11 42.43 263.09 42.19C263.07 41.94 263.08 41.71 263.12 41.49C263.19 41.27 263.35 41.09 263.62 40.96C264.37 41.05 265.08 41.02 265.75 40.89C266.44 40.74 267.08 40.53 267.67 40.26C268.27 39.99 268.84 39.71 269.37 39.4C269.92 39.09 270.46 38.81 270.99 38.57C271.06 38.37 271.15 38.2 271.26 38.07C271.39 37.94 271.53 37.81 271.66 37.7C271.79 37.59 271.91 37.47 272.02 37.34C272.13 37.21 272.21 37.04 272.25 36.84C272.28 36.69 272.23 36.6 272.12 36.57C272.03 36.53 271.99 36.44 271.99 36.31L271.62 36.21C271.2 35.96 270.73 35.76 270.2 35.61C269.67 35.44 269.21 35.25 268.83 35.05C268.59 35.18 268.36 35.22 268.14 35.15C267.94 35.08 267.67 35.02 267.34 34.95C266.59 34.9 265.86 34.82 265.15 34.71C264.46 34.6 263.8 34.41 263.16 34.12C263.11 34.01 263.06 33.91 262.99 33.82C262.92 33.73 262.8 33.71 262.62 33.75C262.51 33.59 262.39 33.44 262.27 33.29C262.19 33.6 262.09 33.91 261.96 34.22C261.32 35.01 260.53 35.67 259.6 36.18C258.69 36.67 257.71 37.06 256.65 37.37C255.58 37.68 254.48 37.95 253.33 38.17C252.2 38.39 251.09 38.61 250.01 38.83C250.03 39.34 250.03 39.89 250.01 40.46C250.01 41.01 249.95 41.58 249.84 42.15C249.75 42.7 249.61 43.25 249.41 43.78C249.21 44.31 248.94 44.8 248.61 45.24C248.24 45.24 247.85 45.3 247.45 45.41C247.05 45.5 246.7 45.57 246.39 45.64C246.24 45.55 246.09 45.48 245.96 45.41C245.85 45.32 245.68 45.26 245.46 45.24C245.51 45.02 245.45 44.8 245.29 44.58C245.14 44.33 244.98 44.09 244.83 43.84C244.68 43.6 244.57 43.37 244.5 43.15C244.45 42.93 244.56 42.72 244.83 42.52C244.68 42.36 244.6 42.16 244.6 41.92C244.75 41.65 244.88 41.29 244.99 40.82C245.12 40.36 245.22 39.91 245.29 39.46C245.38 38.99 245.41 38.57 245.36 38.2C245.31 37.83 245.09 37.55 244.7 37.37C244.72 37.32 244.76 37.3 244.83 37.3C244.9 37.3 244.96 37.29 245.03 37.27C244.85 37.14 244.74 36.95 244.7 36.71C244.67 36.46 244.59 36.25 244.46 36.08C244.51 35.97 244.54 35.87 244.56 35.78C244.59 35.69 244.66 35.65 244.79 35.68C244.73 35.28 244.73 34.9 244.79 34.55C244.88 34.2 245.01 33.86 245.16 33.55C245.31 33.22 245.5 32.9 245.72 32.59C245.95 32.28 246.16 31.97 246.36 31.66C246.51 31.64 246.6 31.66 246.62 31.73C246.67 31.8 246.74 31.78 246.85 31.69C247.14 31.47 247.34 31.24 247.45 31C247.56 30.75 247.62 30.48 247.62 30.17C247.77 29.7 247.96 29.24 248.18 28.77C248.4 28.28 248.64 27.84 248.91 27.44C249.18 27.04 249.47 26.69 249.78 26.38C250.11 26.07 250.45 25.84 250.8 25.68C251.07 25.46 251.4 25.26 251.8 25.09C252.2 24.89 252.63 24.74 253.1 24.65C253.56 24.54 254.02 24.49 254.49 24.49C254.98 24.46 255.42 24.51 255.82 24.62C255.93 24.67 255.98 24.64 255.98 24.55C256.01 24.46 256.05 24.42 256.12 24.42ZM254.76 32.36C255.31 32.11 255.9 31.92 256.52 31.79C257.16 31.64 257.69 31.36 258.11 30.96C257.84 30.72 257.46 30.51 256.95 30.33C256.44 30.13 255.88 30.01 255.29 29.97C254.69 29.92 254.08 29.98 253.46 30.13C252.86 30.26 252.34 30.53 251.9 30.93C251.77 31.33 251.66 31.65 251.57 31.89C251.48 32.11 251.36 32.39 251.2 32.72C251.25 32.83 251.31 32.92 251.4 32.99C251.51 33.03 251.59 33.11 251.63 33.22C252.14 32.95 252.65 32.81 253.16 32.79C253.69 32.74 254.23 32.6 254.76 32.36ZM289.42 42.35L288.92 41.85L289.35 41.52L289.39 40.82C289.94 39.47 290.51 38.18 291.08 36.94C291.68 35.7 292.3 34.43 292.94 33.12C293.14 32.7 293.34 32.28 293.54 31.86C293.76 31.44 293.97 31.01 294.17 30.57C294.14 30.48 294.13 30.39 294.13 30.3C294.13 30.19 294.15 30.06 294.2 29.93C294.51 29.49 294.76 29.09 294.93 28.74C295.13 28.39 295.32 28.02 295.5 27.64C295.7 27.2 295.91 26.76 296.13 26.32C296.37 25.87 296.67 25.44 297.02 25.02L297.26 24.69L297.62 24.72C297.71 24.67 297.8 24.64 297.89 24.62C298 24.58 298.13 24.56 298.29 24.56L298.88 24.65C299.61 24.32 300.26 23.85 300.81 23.23C301.38 22.58 301.96 21.82 302.54 20.94L302.93 20.37L303.47 20.7C303.58 20.77 303.75 20.83 304 20.9C304.24 20.97 304.49 21.05 304.76 21.14C305.23 21.25 305.68 21.38 306.12 21.53C306.57 21.66 306.91 21.85 307.15 22.1L307.32 22.4C307.36 22.64 307.39 22.86 307.42 23.06C307.46 23.26 307.5 23.46 307.55 23.66C307.64 24.13 307.71 24.59 307.78 25.05C307.85 25.5 307.89 26 307.91 26.55C308.02 26.99 308.12 27.44 308.21 27.91C308.32 28.35 308.42 28.79 308.51 29.24C308.62 29.88 308.75 30.5 308.88 31.1C309.01 31.67 309.19 32.23 309.41 32.76C309.63 32.76 309.76 32.77 309.81 32.79C310.08 32.68 310.39 32.61 310.74 32.59L311.17 32.56L311.3 32.96C311.35 33.03 311.4 33.09 311.47 33.16C311.54 33.22 311.61 33.28 311.7 33.35C312.05 33.38 312.31 33.46 312.46 33.59C312.64 33.7 312.78 33.81 312.89 33.92C312.94 33.97 312.99 34.02 313.06 34.09C313.13 34.13 313.18 34.16 313.23 34.18L313.82 34.42L313.49 35.05C313.25 35.52 312.87 35.97 312.36 36.41C311.87 36.85 311.32 37.21 310.7 37.5C310.75 37.66 310.77 37.81 310.77 37.94C310.79 38.07 310.82 38.23 310.87 38.4C310.96 38.85 311.02 39.31 311.07 39.8C311.14 40.26 311.14 40.75 311.07 41.26C310.85 41.83 310.58 42.35 310.27 42.82C309.98 43.26 309.63 43.67 309.21 44.05C308.81 44.4 308.36 44.7 307.85 44.94C307.34 45.16 306.8 45.28 306.25 45.31C305.94 45.24 305.71 45.17 305.56 45.08C305.43 44.99 305.3 44.9 305.19 44.81C305.02 44.68 304.87 44.59 304.76 44.54L304.33 44.34L304.46 43.85C304.53 43.67 304.52 43.51 304.43 43.38C304.36 43.25 304.21 43.07 303.96 42.85C303.87 42.78 303.8 42.72 303.73 42.65C303.66 42.56 303.59 42.48 303.5 42.39L302.83 41.62L303.93 41.32C304.6 41.15 305.04 40.93 305.26 40.66C305.48 40.37 305.57 39.87 305.52 39.16C304.97 39.05 304.51 39.04 304.16 39.13C303.81 39.2 303.45 39.27 303.1 39.36C302.59 39.49 302.1 39.62 301.61 39.73C301.12 39.82 300.58 39.86 300.01 39.86C299.64 39.86 299.24 39.83 298.82 39.76L298.45 39.73L298.35 39.36C298.35 39.32 298.32 39.28 298.25 39.23C298.21 39.16 298.17 39.11 298.12 39.07C298.01 38.94 297.87 38.76 297.72 38.53C297.57 38.31 297.53 38.03 297.62 37.7C297.47 37.46 297.38 37.21 297.36 36.94C297.27 37.12 297.19 37.3 297.12 37.47C297.08 37.62 297.04 37.78 296.99 37.94L296.86 38.37L296.43 38.43C296.38 38.48 296.34 38.54 296.29 38.63C296.27 38.72 296.27 38.79 296.29 38.83L296.43 39.2L296.09 39.5C296.05 39.57 296 39.62 295.93 39.66C295.86 39.71 295.81 39.75 295.76 39.8C295.72 40.04 295.65 40.27 295.56 40.49C295.49 40.71 295.42 40.93 295.33 41.16C295.22 41.51 295.11 41.86 295 42.19C294.91 42.52 294.86 42.85 294.86 43.18L294.73 43.61C294.62 43.79 294.48 43.92 294.3 44.01C294.15 44.1 293.99 44.18 293.84 44.24C293.61 44.33 293.46 44.42 293.37 44.51L293.27 44.94L292.77 45.01C292.48 45.08 292.27 45.12 292.14 45.14C292.03 45.16 291.9 45.17 291.74 45.17L291.31 45.14C291.04 44.87 290.82 44.67 290.65 44.54C290.5 44.39 290.31 44.25 290.08 44.14L289.88 43.88C289.79 43.7 289.74 43.54 289.72 43.41C289.7 43.26 289.67 43.1 289.62 42.95C289.57 42.66 289.51 42.46 289.42 42.35ZM299.55 33.19L299.51 33.22C299.2 33.67 298.91 34.13 298.62 34.62C298.77 34.59 298.92 34.58 299.05 34.58C299.2 34.58 299.36 34.57 299.51 34.55C300.29 34.5 301.01 34.45 301.67 34.38C302.34 34.31 303.06 34.2 303.83 34.05C303.65 33.23 303.45 32.4 303.23 31.56C303.03 30.7 302.81 29.84 302.57 28.97L302.4 29.3C301.85 29.9 301.32 30.54 300.81 31.23C300.3 31.92 299.88 32.57 299.55 33.19ZM327.47 45.08C327.12 45.1 326.67 45.09 326.14 45.04C325.63 45 325.16 45.08 324.71 45.27C323.54 45.23 322.34 45.09 321.13 44.84C319.91 44.6 318.79 44.3 317.78 43.95C317.55 43.7 317.33 43.48 317.11 43.28C316.89 43.06 316.59 42.91 316.21 42.82C315.68 42.4 315.25 41.89 314.92 41.29C314.59 40.67 314.32 40.02 314.12 39.33C313.92 38.64 313.79 37.95 313.72 37.24C313.65 36.51 313.63 35.81 313.66 35.15C313.99 34.15 314.46 33.3 315.05 32.59C315.67 31.86 316.3 31.14 316.95 30.43C317.24 30.3 317.45 30.16 317.58 30.03C317.73 29.88 317.89 29.75 318.04 29.64C318.22 29.51 318.39 29.38 318.54 29.27C318.71 29.14 318.87 28.98 319 28.81C319.47 28.7 319.87 28.54 320.2 28.34C320.55 28.12 320.9 27.9 321.23 27.68C321.56 27.43 321.91 27.21 322.26 27.01C322.61 26.81 323.02 26.66 323.49 26.55C323.66 26.35 323.87 26.19 324.12 26.08C324.36 25.95 324.6 25.83 324.85 25.72C325.12 25.59 325.36 25.45 325.58 25.32C325.82 25.19 326.01 25.01 326.14 24.79C326.25 24.96 326.41 25.03 326.61 24.99C326.81 24.92 327 24.86 327.17 24.79C327.28 24.77 327.37 24.79 327.44 24.86C327.53 24.92 327.6 24.98 327.67 25.05C327.74 25.12 327.79 25.16 327.84 25.19C327.91 25.19 327.96 25.13 328 25.02C328.11 25.02 328.15 25.08 328.1 25.19C328.06 25.3 328.03 25.37 328 25.42C328.18 25.4 328.32 25.44 328.43 25.55C328.56 25.64 328.76 25.7 329.03 25.72C329.12 25.83 329.14 25.91 329.1 25.98C329.05 26.03 329.03 26.12 329.03 26.25C329.7 26.45 330.12 26.77 330.29 27.21C330.47 27.63 330.48 28.07 330.33 28.54C330.17 29.01 329.89 29.44 329.5 29.84C329.1 30.23 328.67 30.5 328.2 30.63C327.14 30.92 326.13 31.24 325.18 31.6C324.25 31.93 323.49 32.42 322.89 33.09C322.36 33.24 321.88 33.45 321.46 33.72C321.06 33.97 320.67 34.25 320.3 34.58C319.95 34.89 319.6 35.23 319.27 35.58C318.96 35.91 318.62 36.25 318.27 36.58C318.3 36.89 318.24 37.13 318.11 37.31C318 37.46 317.89 37.63 317.78 37.8C317.82 38.13 317.9 38.43 318.01 38.7C318.12 38.95 318.24 39.19 318.37 39.43C319.83 39.88 321.38 40.15 323.02 40.26C324.68 40.37 326.34 40.44 328 40.46C328.15 40.68 328.33 40.89 328.53 41.09C328.75 41.27 328.95 41.47 329.13 41.69C329.31 41.89 329.45 42.12 329.56 42.39C329.67 42.63 329.7 42.94 329.63 43.32C329.32 43.65 328.97 43.96 328.6 44.25C328.22 44.51 327.84 44.79 327.47 45.08ZM344.94 45.08C344.58 45.1 344.14 45.09 343.61 45.04C343.1 45 342.62 45.08 342.18 45.28C341.01 45.23 339.81 45.09 338.59 44.84C337.38 44.6 336.26 44.3 335.24 43.95C335.02 43.7 334.8 43.48 334.58 43.28C334.35 43.06 334.05 42.91 333.68 42.82C333.15 42.4 332.71 41.89 332.38 41.29C332.05 40.67 331.79 40.02 331.59 39.33C331.39 38.64 331.26 37.95 331.19 37.24C331.12 36.51 331.1 35.81 331.12 35.15C331.45 34.15 331.92 33.3 332.52 32.59C333.14 31.86 333.77 31.14 334.41 30.43C334.7 30.3 334.91 30.16 335.04 30.03C335.19 29.88 335.35 29.75 335.51 29.64C335.68 29.51 335.85 29.38 336 29.27C336.18 29.14 336.34 28.98 336.47 28.81C336.94 28.7 337.33 28.54 337.66 28.34C338.02 28.12 338.36 27.9 338.69 27.68C339.02 27.43 339.37 27.21 339.72 27.01C340.07 26.81 340.48 26.66 340.95 26.55C341.13 26.35 341.34 26.19 341.58 26.08C341.83 25.95 342.07 25.83 342.31 25.72C342.58 25.59 342.82 25.45 343.04 25.32C343.29 25.19 343.48 25.01 343.61 24.79C343.72 24.96 343.87 25.03 344.07 24.99C344.27 24.92 344.46 24.86 344.64 24.79C344.75 24.77 344.83 24.79 344.9 24.86C344.99 24.93 345.07 24.99 345.13 25.05C345.2 25.12 345.25 25.16 345.3 25.19C345.37 25.19 345.42 25.13 345.47 25.02C345.58 25.02 345.61 25.08 345.57 25.19C345.52 25.3 345.49 25.37 345.47 25.42C345.64 25.4 345.79 25.44 345.9 25.55C346.03 25.64 346.23 25.7 346.5 25.72C346.59 25.83 346.61 25.91 346.56 25.98C346.52 26.03 346.5 26.12 346.5 26.25C347.16 26.45 347.58 26.77 347.76 27.21C347.93 27.63 347.94 28.07 347.79 28.54C347.64 29.01 347.36 29.44 346.96 29.84C346.56 30.23 346.13 30.5 345.67 30.63C344.6 30.92 343.59 31.24 342.64 31.6C341.71 31.93 340.95 32.42 340.35 33.09C339.82 33.24 339.35 33.45 338.93 33.72C338.53 33.97 338.14 34.25 337.76 34.58C337.41 34.89 337.06 35.23 336.73 35.58C336.42 35.91 336.09 36.25 335.74 36.58C335.76 36.89 335.7 37.13 335.57 37.31C335.46 37.46 335.35 37.63 335.24 37.8C335.29 38.13 335.36 38.43 335.47 38.7C335.58 38.95 335.71 39.19 335.84 39.43C337.3 39.88 338.85 40.15 340.49 40.26C342.15 40.37 343.81 40.44 345.47 40.46C345.62 40.68 345.8 40.89 346 41.09C346.22 41.27 346.42 41.47 346.6 41.69C346.77 41.89 346.92 42.12 347.03 42.39C347.14 42.63 347.16 42.94 347.09 43.32C346.78 43.65 346.44 43.96 346.06 44.25C345.69 44.51 345.31 44.79 344.94 45.08ZM367.12 26.32C367.14 26.47 367.14 26.59 367.12 26.68C367.12 26.75 367.11 26.81 367.08 26.88C367.08 26.95 367.08 27.02 367.08 27.11C367.08 27.18 367.1 27.29 367.15 27.45C366.68 28.2 366.14 28.72 365.52 29.01C364.93 29.27 364.27 29.47 363.56 29.6C362.85 29.71 362.12 29.84 361.37 29.97C360.64 30.1 359.91 30.39 359.18 30.83C358.89 30.72 358.63 30.72 358.38 30.83C358.16 30.94 357.83 30.98 357.39 30.93C357.26 31.06 357.09 31.16 356.89 31.23C356.69 31.28 356.49 31.33 356.29 31.4C356.38 31.6 356.41 31.81 356.39 32.03C356.39 32.23 356.42 32.4 356.49 32.53C357.26 32.6 358.12 32.58 359.05 32.49C360 32.4 360.93 32.35 361.84 32.33C361.86 32.44 361.85 32.51 361.8 32.56C361.76 32.58 361.75 32.64 361.77 32.73C361.92 32.84 362.08 32.98 362.23 33.16C362.39 33.31 362.55 33.47 362.7 33.62C362.85 33.77 363.01 33.91 363.16 34.02C363.34 34.11 363.54 34.14 363.76 34.12C363.85 34.3 363.9 34.5 363.93 34.72C363.97 34.92 363.95 35.13 363.86 35.35C363.51 35.59 363.15 35.84 362.8 36.11C362.45 36.36 362.07 36.58 361.67 36.78C361.3 36.97 360.89 37.14 360.44 37.27C360.02 37.38 359.54 37.43 359.01 37.41C358.9 37.41 358.82 37.41 358.75 37.41C358.7 37.41 358.64 37.38 358.55 37.31C358.37 37.42 358.12 37.45 357.79 37.41C357.48 37.36 357.23 37.4 357.05 37.51C356.81 37.4 356.51 37.35 356.16 37.37C355.83 37.37 355.53 37.33 355.26 37.24C354.91 37.71 354.59 38.2 354.3 38.73C354.01 39.26 353.76 39.83 353.53 40.43C354.28 40.54 354.9 40.58 355.39 40.56C355.9 40.54 356.38 40.51 356.82 40.46C357.27 40.39 357.72 40.34 358.18 40.3C358.65 40.23 359.23 40.21 359.94 40.23C360.39 39.98 360.91 39.83 361.5 39.76C362.12 39.67 362.69 39.54 363.2 39.37C363.37 39.44 363.53 39.56 363.66 39.73C363.79 39.88 363.92 40.04 364.03 40.2C364.16 40.33 364.3 40.45 364.43 40.56C364.56 40.67 364.72 40.72 364.92 40.69C365.01 40.78 365.07 40.9 365.09 41.03C365.14 41.14 365.17 41.25 365.19 41.36C365.21 41.47 365.24 41.57 365.29 41.66C365.36 41.73 365.46 41.75 365.59 41.72C365.26 42.45 364.87 43.02 364.43 43.42C364 43.79 363.51 44.08 362.96 44.28C362.41 44.48 361.79 44.63 361.11 44.74C360.44 44.85 359.7 44.99 358.88 45.14C358.68 45.19 358.51 45.19 358.38 45.14C358.25 45.07 358.09 45.04 357.92 45.04C357.41 45.15 356.8 45.25 356.09 45.34C355.38 45.43 354.66 45.46 353.93 45.44C353.2 45.42 352.51 45.33 351.84 45.18C351.18 45 350.64 44.7 350.21 44.28C350.04 44.13 349.92 43.95 349.85 43.75C349.8 43.53 349.66 43.36 349.42 43.25C349.39 42.96 349.35 42.64 349.28 42.29C349.22 41.94 349.16 41.57 349.09 41.19C349.02 40.79 348.97 40.4 348.92 40.03C348.9 39.65 348.92 39.31 348.99 39C349.06 38.67 349.19 38.37 349.38 38.1C349.61 37.84 349.69 37.55 349.62 37.24C349.73 37.22 349.79 37.16 349.82 37.07C349.84 36.96 349.93 36.92 350.08 36.94C350.21 36.54 350.36 36.16 350.51 35.81C350.67 35.46 350.83 35.11 350.98 34.78C351.15 34.45 351.32 34.12 351.48 33.79C351.65 33.44 351.82 33.05 351.97 32.63C351.66 32.34 351.43 32.03 351.28 31.7C351.15 31.34 351.05 31 350.98 30.67C350.91 30.31 350.86 29.95 350.81 29.6C350.77 29.23 350.69 28.85 350.58 28.47C350.8 28.14 351.07 27.88 351.38 27.68C351.71 27.46 352.07 27.28 352.44 27.15C352.81 27.02 353.22 26.9 353.67 26.81C354.11 26.72 354.57 26.63 355.06 26.52C355.95 26.23 356.73 26 357.42 25.85C358.13 25.7 358.81 25.58 359.48 25.49C360.17 25.38 360.87 25.28 361.6 25.19C362.33 25.1 363.16 24.97 364.09 24.79C364.29 24.99 364.48 25.09 364.66 25.09C364.75 24.89 364.85 24.83 364.96 24.92C365.09 24.99 365.15 24.92 365.12 24.72C365.35 25.1 365.62 25.42 365.95 25.69C366.3 25.93 366.69 26.14 367.12 26.32ZM375.85 44.45L375.08 44.65C374.46 44.84 373.79 45.04 373.06 45.24C372.33 45.44 371.6 45.54 370.87 45.54C369.76 45.54 368.89 45.26 368.24 44.71C368.13 44.47 368.03 44.3 367.94 44.21C367.88 44.12 367.82 44.04 367.75 43.95C367.7 43.84 367.67 43.69 367.65 43.52C367.38 43.21 367.17 42.85 367.02 42.45C366.86 42.03 366.75 41.61 366.68 41.19C366.64 40.75 366.63 40.31 366.65 39.86C366.7 39.42 366.77 39 366.88 38.6C366.93 38.51 366.95 38.43 366.95 38.34C366.97 38.25 366.99 38.15 367.02 38.04C367.11 37.69 367.19 37.34 367.28 37.01C367.39 36.68 367.54 36.39 367.71 36.15C367.62 35.95 367.62 35.73 367.71 35.48C367.8 35.24 367.9 35.02 368.01 34.82C368.32 33.98 368.58 33.27 368.78 32.69C369 32.1 369.22 31.51 369.44 30.93C369.81 29.94 370.17 28.95 370.5 27.98C370.83 27.01 371.13 25.95 371.4 24.82C371.57 24.71 371.71 24.64 371.8 24.59C371.93 24.54 372.04 24.51 372.13 24.49C372.53 24.69 372.99 24.89 373.52 25.09C374.05 25.26 374.5 25.35 374.85 25.35C375.03 25.46 375.14 25.55 375.18 25.62C375.23 25.67 375.27 25.71 375.32 25.75C375.56 26.04 375.77 26.34 375.95 26.65C376.12 26.94 376.18 27.32 376.11 27.81C375.98 28.01 375.88 28.11 375.81 28.11C375.7 28.55 375.58 28.93 375.45 29.24C375.34 29.55 375.21 29.86 375.08 30.17C374.93 30.5 374.78 30.83 374.65 31.16C374.52 31.49 374.41 31.9 374.32 32.39C374.23 32.5 374.17 32.6 374.12 32.69C374.1 32.78 374.07 32.88 374.02 32.99C373.98 33.1 373.93 33.23 373.86 33.36C373.81 33.47 373.73 33.57 373.62 33.66C373.55 34.23 373.44 34.7 373.29 35.05C373.16 35.4 373.01 35.76 372.86 36.11C372.59 36.76 372.35 37.4 372.13 38.04C371.93 38.68 371.81 39.41 371.76 40.23C371.87 40.18 371.97 40.16 372.06 40.16C372.17 40.16 372.27 40.16 372.36 40.16C372.56 40.16 372.79 40.19 373.06 40.26C373.72 39.91 374.44 39.7 375.22 39.63C376.01 39.56 376.8 39.52 377.57 39.5C377.88 39.5 378.19 39.5 378.5 39.5C378.81 39.5 379.1 39.48 379.37 39.43C379.57 39.54 379.69 39.61 379.73 39.63C379.8 39.63 379.89 39.63 380 39.63C380.15 39.63 380.29 39.64 380.4 39.67C380.66 39.91 380.91 40.09 381.16 40.2C381.41 40.31 381.66 40.41 381.92 40.5C382.17 40.59 382.4 40.68 382.62 40.79C382.87 40.88 383.1 41.02 383.32 41.19L383.55 42.62C383.7 42.82 383.77 42.95 383.75 43.02C383.75 43.19 383.71 43.33 383.62 43.42L383.68 43.78C383.35 43.85 383.12 43.92 382.99 44.01C382.88 44.1 382.76 44.2 382.65 44.31C382.48 44.34 382.35 44.35 382.26 44.35C382.19 44.35 382.13 44.35 382.06 44.35C381.75 44.35 381.37 44.4 380.93 44.51C380.33 44.31 379.71 44.21 379.07 44.21C378.82 44.21 378.57 44.22 378.3 44.25C378.04 44.27 377.78 44.29 377.51 44.31C377.24 44.36 376.97 44.39 376.68 44.41C376.41 44.44 376.14 44.45 375.85 44.45ZM402.97 26.32C403 26.47 403 26.59 402.97 26.68C402.97 26.75 402.96 26.81 402.94 26.88C402.94 26.95 402.94 27.02 402.94 27.11C402.94 27.18 402.96 27.29 403.01 27.45C402.54 28.2 402 28.72 401.38 29.01C400.78 29.28 400.13 29.48 399.42 29.61C398.71 29.72 397.98 29.84 397.23 29.97C396.5 30.1 395.77 30.39 395.04 30.83C394.75 30.72 394.49 30.72 394.24 30.83C394.02 30.94 393.69 30.98 393.25 30.93C393.12 31.06 392.95 31.16 392.75 31.23C392.55 31.28 392.35 31.33 392.15 31.4C392.24 31.6 392.27 31.81 392.25 32.03C392.25 32.23 392.28 32.4 392.35 32.53C393.12 32.6 393.98 32.58 394.91 32.49C395.86 32.4 396.79 32.35 397.7 32.33C397.72 32.44 397.71 32.51 397.66 32.56C397.62 32.58 397.61 32.64 397.63 32.73C397.78 32.84 397.94 32.98 398.09 33.16C398.25 33.31 398.41 33.47 398.56 33.62C398.71 33.78 398.87 33.91 399.02 34.02C399.2 34.11 399.4 34.14 399.62 34.12C399.71 34.3 399.76 34.5 399.79 34.72C399.83 34.92 399.81 35.13 399.72 35.35C399.37 35.59 399.01 35.84 398.66 36.11C398.31 36.36 397.93 36.58 397.53 36.78C397.15 36.98 396.74 37.14 396.3 37.27C395.88 37.38 395.4 37.43 394.87 37.41C394.76 37.41 394.68 37.41 394.61 37.41C394.56 37.41 394.5 37.38 394.41 37.31C394.23 37.42 393.97 37.45 393.64 37.41C393.33 37.36 393.09 37.4 392.91 37.51C392.67 37.4 392.37 37.35 392.02 37.37C391.69 37.37 391.39 37.33 391.12 37.24C390.77 37.71 390.45 38.21 390.16 38.74C389.87 39.27 389.62 39.83 389.39 40.43C390.14 40.54 390.76 40.59 391.25 40.56C391.76 40.54 392.24 40.51 392.68 40.46C393.13 40.39 393.58 40.34 394.04 40.3C394.51 40.23 395.09 40.21 395.8 40.23C396.25 39.98 396.77 39.83 397.36 39.77C397.98 39.68 398.55 39.54 399.06 39.37C399.23 39.44 399.39 39.56 399.52 39.73C399.65 39.88 399.78 40.04 399.89 40.2C400.02 40.33 400.15 40.45 400.28 40.56C400.41 40.67 400.58 40.72 400.78 40.69C400.87 40.78 400.93 40.9 400.95 41.03C401 41.14 401.03 41.25 401.05 41.36C401.07 41.47 401.1 41.57 401.15 41.66C401.22 41.73 401.32 41.75 401.45 41.72C401.12 42.45 400.73 43.02 400.28 43.42C399.86 43.79 399.37 44.08 398.82 44.28C398.27 44.48 397.65 44.64 396.96 44.75C396.3 44.86 395.56 44.99 394.74 45.14C394.54 45.19 394.37 45.19 394.24 45.14C394.11 45.07 393.95 45.04 393.78 45.04C393.27 45.15 392.66 45.25 391.95 45.34C391.24 45.43 390.52 45.47 389.79 45.44C389.06 45.42 388.37 45.33 387.7 45.18C387.03 45 386.49 44.7 386.07 44.28C385.9 44.13 385.78 43.95 385.71 43.75C385.66 43.53 385.52 43.36 385.28 43.25C385.25 42.96 385.21 42.64 385.14 42.29C385.07 41.94 385.01 41.57 384.95 41.19C384.88 40.79 384.83 40.4 384.78 40.03C384.76 39.66 384.78 39.31 384.85 39C384.92 38.67 385.05 38.37 385.24 38.1C385.47 37.84 385.55 37.55 385.48 37.24C385.59 37.22 385.65 37.17 385.68 37.08C385.7 36.97 385.79 36.92 385.94 36.94C386.07 36.54 386.22 36.16 386.37 35.81C386.53 35.46 386.69 35.11 386.84 34.78C387.01 34.45 387.18 34.12 387.34 33.79C387.51 33.44 387.68 33.05 387.83 32.63C387.52 32.34 387.29 32.03 387.14 31.7C387.01 31.35 386.91 31 386.84 30.67C386.77 30.32 386.72 29.96 386.67 29.6C386.63 29.23 386.55 28.85 386.44 28.48C386.66 28.15 386.93 27.88 387.24 27.68C387.57 27.46 387.92 27.28 388.3 27.15C388.67 27.02 389.08 26.91 389.53 26.82C389.97 26.73 390.43 26.63 390.92 26.52C391.81 26.23 392.59 26.01 393.28 25.85C393.99 25.7 394.67 25.58 395.34 25.49C396.03 25.38 396.73 25.28 397.46 25.19C398.19 25.1 399.02 24.97 399.95 24.79C400.15 24.99 400.34 25.09 400.52 25.09C400.61 24.89 400.71 24.83 400.82 24.92C400.95 24.99 401.01 24.92 400.98 24.72C401.2 25.1 401.48 25.42 401.81 25.69C402.16 25.93 402.55 26.14 402.97 26.32ZM407.52 41.56C407.28 42.45 407.06 43.12 406.86 43.58C406.68 44.03 406.4 44.49 406.03 44.98C405.74 44.93 405.54 44.97 405.43 45.08C405.32 45.19 405.2 45.29 405.07 45.38C404.87 45.42 404.72 45.42 404.63 45.38C404.54 45.33 404.47 45.29 404.4 45.24C404.33 45.17 404.25 45.12 404.14 45.08C404.05 45.01 403.9 44.98 403.7 44.98C403.66 44.8 403.61 44.63 403.54 44.48C403.49 44.33 403.35 44.27 403.11 44.31C403.15 44.14 403.16 43.99 403.14 43.88C403.12 43.75 403.09 43.64 403.04 43.55C403.02 43.44 403 43.34 402.97 43.25C402.95 43.14 402.96 43.01 403.01 42.85C402.9 42.85 402.81 42.77 402.74 42.62C402.67 42.47 402.6 42.31 402.51 42.16C402.58 41.76 402.64 41.38 402.71 41.03C402.78 40.68 402.85 40.34 402.94 40.03C403.05 39.72 403.14 39.41 403.21 39.1C403.28 38.79 403.24 38.47 403.11 38.14C403.2 38.21 403.26 38.2 403.31 38.11C403.35 38 403.38 37.86 403.41 37.71C403.43 37.53 403.44 37.36 403.44 37.21C403.44 37.03 403.43 36.89 403.41 36.78C403.63 36.2 403.81 35.61 403.94 35.02C404.09 34.4 404.23 33.79 404.34 33.19C404.47 32.59 404.6 32 404.73 31.43C404.86 30.86 405.04 30.33 405.27 29.84C405.51 29.79 405.77 29.83 406.06 29.94C406.37 30.03 406.56 30.15 406.63 30.3C407.2 29.86 407.71 29.33 408.15 28.71C408.6 28.07 409.05 27.45 409.52 26.85C409.98 26.25 410.49 25.72 411.04 25.26C411.62 24.79 412.34 24.52 413.2 24.43C413.65 24.76 414.13 25.1 414.66 25.46C415.21 25.79 415.67 26.23 416.02 26.78C416.2 26.87 416.35 26.97 416.46 27.08C416.59 27.17 416.74 27.27 416.92 27.38L416.92 27.78C417.19 28.02 417.4 28.31 417.55 28.64C417.73 28.95 417.89 29.3 418.02 29.67C418.15 30.02 418.28 30.39 418.41 30.77C418.54 31.12 418.7 31.47 418.88 31.8C418.83 31.91 418.81 32.01 418.81 32.1C418.81 32.17 418.82 32.24 418.85 32.33C418.89 32.42 418.92 32.5 418.95 32.59C418.97 32.68 418.97 32.81 418.95 32.96C418.88 33.93 418.56 34.72 417.98 35.32C417.43 35.91 416.75 36.41 415.96 36.81C415.16 37.19 414.31 37.51 413.4 37.77C412.49 38.04 411.67 38.33 410.94 38.64C410.94 38.73 410.97 38.77 411.04 38.77C411.13 38.77 411.17 38.83 411.14 38.94C411.67 39.27 412.09 39.53 412.4 39.73C412.71 39.93 413 40.1 413.27 40.23C413.56 40.36 413.85 40.49 414.16 40.6C414.49 40.69 414.95 40.8 415.53 40.93C416.1 41.06 416.54 41.17 416.85 41.26C417.18 41.33 417.48 41.39 417.75 41.46C418.02 41.51 418.28 41.55 418.55 41.59C418.84 41.62 419.23 41.65 419.74 41.69C419.87 41.82 419.98 41.96 420.08 42.12L420.11 41.72C420.55 40.59 421.01 39.51 421.5 38.47C422.01 37.43 422.53 36.37 423.06 35.28C423.24 34.93 423.41 34.57 423.56 34.22C423.74 33.87 423.92 33.51 424.09 33.16C424.07 33.09 424.06 33.02 424.06 32.93C424.06 32.84 424.08 32.74 424.13 32.63C424.37 32.25 424.57 31.92 424.72 31.63C424.88 31.32 425.04 31.01 425.19 30.7C425.36 30.33 425.54 29.96 425.72 29.61C425.92 29.25 426.16 28.88 426.45 28.51L426.98 28.28C427.05 28.25 427.12 28.23 427.21 28.21C427.3 28.16 427.4 28.14 427.51 28.14L428.01 28.21C428.63 27.92 429.17 27.53 429.64 27.02C430.1 26.49 430.57 25.85 431.06 25.12L431.4 24.66L431.83 24.92C431.94 24.99 432.09 25.05 432.29 25.12C432.49 25.17 432.7 25.22 432.92 25.29C433.32 25.38 433.7 25.48 434.05 25.59C434.4 25.7 434.69 25.86 434.92 26.09C435.05 26.44 435.13 26.71 435.15 26.88C435.17 27.06 435.2 27.24 435.25 27.41C435.32 27.79 435.37 28.17 435.41 28.54C435.48 28.92 435.52 29.34 435.55 29.81C435.66 30.18 435.74 30.56 435.81 30.93C435.9 31.29 435.98 31.66 436.04 32.03C436.15 32.56 436.27 33.08 436.38 33.59C436.49 34.08 436.63 34.54 436.81 34.99C436.98 34.99 437.09 35 437.14 35.02C437.25 34.97 437.36 34.94 437.47 34.92C437.6 34.9 437.75 34.88 437.9 34.85L438.27 34.82L438.4 35.15C438.43 35.26 438.54 35.37 438.73 35.48C439.02 35.51 439.24 35.57 439.37 35.68C439.5 35.77 439.62 35.87 439.73 35.98C439.82 36.07 439.91 36.13 440 36.18L440.49 36.38L440.23 36.88C440.01 37.28 439.69 37.67 439.27 38.04C438.87 38.39 438.41 38.69 437.9 38.94C437.93 39.07 437.94 39.2 437.94 39.33C437.96 39.44 437.99 39.57 438.04 39.7C438.11 40.07 438.16 40.46 438.2 40.86C438.25 41.26 438.25 41.67 438.2 42.09L438.14 42.22C438.01 42.6 437.81 42.99 437.54 43.39C437.29 43.76 436.99 44.1 436.64 44.41C436.31 44.7 435.93 44.95 435.51 45.15C435.09 45.34 434.65 45.45 434.19 45.48C433.9 45.41 433.7 45.35 433.59 45.28C433.5 45.19 433.4 45.12 433.29 45.05C433.22 45 433.16 44.97 433.09 44.95C433.04 44.9 433 44.87 432.96 44.85L432.56 44.68L432.69 44.25C432.74 44.07 432.73 43.94 432.66 43.85C432.59 43.74 432.46 43.59 432.26 43.42C432.19 43.35 432.13 43.29 432.06 43.22C431.99 43.15 431.94 43.09 431.89 43.02L431.33 42.39L432.23 42.16C432.78 42 433.15 41.8 433.32 41.56C433.52 41.31 433.6 40.9 433.55 40.33C433.11 40.24 432.74 40.23 432.43 40.3C432.14 40.37 431.84 40.44 431.53 40.53C431.13 40.64 430.72 40.74 430.3 40.83C429.9 40.9 429.46 40.93 428.97 40.93C428.8 40.93 428.63 40.93 428.47 40.93C428.32 40.9 428.15 40.88 427.98 40.86L427.64 40.8C427.6 40.55 427.56 40.42 427.51 40.4C427.47 40.35 427.43 40.31 427.38 40.26C427.27 40.15 427.14 40.01 427.01 39.83C426.9 39.63 426.88 39.39 426.95 39.1C426.84 38.9 426.77 38.7 426.75 38.5C426.62 38.77 426.52 39.04 426.45 39.33L426.32 39.67L425.98 39.73C425.94 39.76 425.91 39.81 425.88 39.9C425.86 39.97 425.85 40.02 425.85 40.06L425.69 40.63C425.64 40.68 425.6 40.72 425.55 40.76C425.51 40.79 425.47 40.82 425.42 40.86C425.37 41.06 425.32 41.26 425.25 41.46C425.18 41.66 425.12 41.85 425.05 42.02C424.94 42.31 424.85 42.6 424.76 42.89C424.69 43.16 424.67 43.42 424.69 43.68L424.56 44.05C424.45 44.18 424.32 44.29 424.19 44.38C424.06 44.45 423.92 44.51 423.79 44.58C423.75 44.63 423.68 44.67 423.59 44.71C423.52 44.74 423.47 44.76 423.43 44.78L423.33 45.14L422.93 45.21C422.68 45.26 422.51 45.29 422.4 45.31C422.31 45.33 422.2 45.34 422.07 45.34L421.73 45.31C421.49 45.11 421.3 44.96 421.17 44.85C421.04 44.72 420.88 44.59 420.7 44.48C420.64 44.39 420.58 44.32 420.54 44.24C420.5 44.4 420.44 44.54 420.34 44.65C420.36 44.72 420.4 44.75 420.47 44.75C420.56 44.72 420.65 44.72 420.74 44.75C420.61 44.84 420.5 44.95 420.41 45.08C420.32 45.21 420.23 45.35 420.14 45.48C420.05 45.61 419.95 45.73 419.84 45.84C419.73 45.93 419.58 45.98 419.38 46.01C418.69 46.28 417.83 46.3 416.79 46.07C415.75 45.83 414.43 45.4 412.84 44.78C412.04 44.47 411.39 44.2 410.88 43.98C410.39 43.74 409.96 43.51 409.58 43.29C409.23 43.04 408.9 42.79 408.59 42.52C408.3 42.25 407.94 41.93 407.52 41.56ZM412.27 30.17C412.03 30.52 411.75 30.84 411.44 31.13C411.15 31.42 410.87 31.72 410.58 32.03C410.31 32.32 410.07 32.65 409.85 33.03C409.63 33.38 409.47 33.8 409.38 34.29C410.15 34.2 410.96 33.99 411.81 33.66C412.65 33.31 413.45 32.97 414.2 32.66C414.11 31.97 413.86 31.42 413.47 31C413.09 30.58 412.69 30.3 412.27 30.17ZM428.54 36.48C429.21 36.43 429.8 36.39 430.33 36.35C430.88 36.28 431.49 36.18 432.16 36.05C432.01 35.38 431.84 34.7 431.66 33.99C431.49 33.26 431.3 32.54 431.1 31.83L430.9 32.16C430.45 32.63 430.02 33.15 429.6 33.72C429.21 34.3 428.86 34.84 428.57 35.35C428.44 35.55 428.31 35.75 428.18 35.95C428.05 36.15 427.92 36.35 427.81 36.55C427.94 36.52 428.07 36.51 428.18 36.51C428.31 36.51 428.43 36.5 428.54 36.48ZM459.22 29.04C458.67 29.04 458.07 29.09 457.43 29.18C456.78 29.24 456.15 29.32 455.54 29.41C455.09 29.48 454.66 29.53 454.24 29.57C453.84 29.62 453.47 29.65 453.14 29.67C452.99 30.16 452.83 30.59 452.68 30.97C452.53 31.34 452.36 31.71 452.18 32.06C452.01 32.44 451.84 32.83 451.68 33.23C451.55 33.6 451.42 34.01 451.29 34.45C451.06 34.81 450.87 35.14 450.72 35.45C450.59 35.74 450.48 36.07 450.39 36.45C450.12 36.78 449.92 37.13 449.79 37.51C449.66 37.86 449.56 38.17 449.49 38.44L449.36 38.84C449.23 38.97 449.15 39.08 449.13 39.17C449.1 39.24 449.05 39.3 448.96 39.37C448.94 39.61 448.86 39.85 448.73 40.1C448.68 40.21 448.65 40.32 448.63 40.43C448.61 40.52 448.6 40.58 448.6 40.63C448.6 40.85 448.54 40.99 448.43 41.06C448.45 41.17 448.45 41.3 448.43 41.43C448.41 41.54 448.39 41.65 448.36 41.76C448.29 42.03 448.27 42.24 448.3 42.39C448.37 42.48 448.42 42.55 448.46 42.62C448.53 42.69 448.57 42.78 448.6 42.89C448.73 42.98 448.82 43.03 448.89 43.05C448.98 43.12 449.12 43.2 449.29 43.29L449.59 43.62C449.7 44.26 449.6 44.77 449.29 45.15C448.96 45.57 448.39 45.78 447.6 45.78L447.2 45.78C447.09 45.67 447.02 45.58 447 45.51C446.83 45.44 446.68 45.39 446.57 45.34C446.46 45.3 446.36 45.21 446.27 45.08C445.98 44.95 445.75 44.84 445.57 44.75L445.28 44.58C445.28 44.34 445.28 44.21 445.28 44.18C445.12 43.98 445 43.76 444.91 43.52C444.84 43.27 444.79 43.03 444.74 42.79C444.7 42.59 444.65 42.4 444.58 42.22C444.53 42.05 444.47 41.89 444.38 41.76C444.33 40.47 444.45 39.39 444.74 38.5C445.03 37.62 445.33 36.77 445.64 35.95C445.82 35.5 446 35.06 446.17 34.62C446.35 34.15 446.51 33.68 446.64 33.19L446.94 32.86C447.09 32.51 447.21 32.22 447.3 32C447.41 31.75 447.52 31.51 447.63 31.27C447.7 31.11 447.75 30.96 447.8 30.83C447.87 30.68 447.92 30.55 447.96 30.44C447.83 30.44 447.71 30.45 447.6 30.47C447.49 30.47 447.38 30.48 447.27 30.5C447.14 30.53 447.01 30.55 446.9 30.57C446.79 30.57 446.68 30.57 446.57 30.57C446.42 30.57 446.31 30.56 446.24 30.54C445.99 30.65 445.73 30.7 445.44 30.7C445.37 30.7 444.98 30.7 444.91 30.7C444.86 30.68 444.82 30.67 444.78 30.67C444.56 30.67 444.38 30.7 444.25 30.77C443.98 30.77 443.73 30.77 443.48 30.77L443.15 30.77C443.1 30.77 443.05 30.78 442.98 30.8C442.91 30.8 442.86 30.8 442.82 30.8C442.67 30.8 442.5 30.79 442.32 30.77C442.14 30.72 441.95 30.65 441.76 30.54C441.49 30.18 441.31 29.99 441.22 29.97L440.93 29.57C440.9 29.44 440.87 29.32 440.83 29.21C440.78 29.08 440.74 28.93 440.69 28.78C440.6 28.55 440.52 28.32 440.43 28.08C440.36 27.81 440.33 27.5 440.33 27.15C440.35 26.97 440.39 26.84 440.46 26.75C440.53 26.66 440.58 26.59 440.63 26.52L440.73 26.02L441.16 26.05L442.09 26.05C442.8 26.05 443.52 26.03 444.25 25.99C444.98 25.92 445.73 25.86 446.5 25.79C446.95 25.74 447.39 25.7 447.83 25.66C448.3 25.61 448.77 25.57 449.26 25.52C449.35 25.32 449.44 25.13 449.53 24.96L449.86 24.79C450.26 24.77 450.54 24.83 450.69 24.96C450.86 25.07 451.01 25.18 451.12 25.29C451.61 25.24 452.09 25.2 452.58 25.16C453.09 25.09 453.6 25.02 454.11 24.93C454.86 24.82 455.62 24.72 456.37 24.63C457.14 24.54 457.88 24.49 458.59 24.49C458.9 24.49 459.2 24.5 459.49 24.53C459.78 24.55 460.04 24.58 460.28 24.63L460.62 24.86C460.69 24.99 460.77 25.11 460.88 25.22C461.01 25.33 461.15 25.45 461.28 25.56C461.55 25.8 461.81 26.09 462.08 26.42C462.34 26.75 462.44 27.24 462.38 27.88C462.2 28.15 462.07 28.3 461.98 28.35L461.68 28.74L461.35 28.71C461.22 28.71 461.09 28.73 460.98 28.78C460.87 28.8 460.76 28.83 460.65 28.88C460.56 28.92 460.47 28.96 460.38 29.01C460.29 29.03 460.19 29.05 460.08 29.08C459.89 29.08 459.72 29.08 459.59 29.08C459.48 29.05 459.35 29.04 459.22 29.04ZM475.99 35.05C475.97 35.32 475.99 35.57 476.05 35.82C476.12 36.06 476.2 36.3 476.29 36.55C476.4 36.77 476.5 37 476.59 37.24C476.68 37.49 476.74 37.73 476.79 37.97C476.83 38.28 476.83 38.63 476.78 39C476.74 39.36 476.66 39.72 476.55 40.07C476.44 40.4 476.3 40.71 476.12 41C475.95 41.26 475.74 41.46 475.49 41.59C475.18 41.99 474.81 42.3 474.36 42.52C473.92 42.75 473.51 43.01 473.13 43.32C472.89 43.47 472.61 43.58 472.3 43.65C472.01 43.72 471.72 43.78 471.41 43.85C471.16 43.98 470.87 44.13 470.54 44.28C470.21 44.41 469.86 44.55 469.51 44.68C469.16 44.79 468.8 44.88 468.45 44.95C468.1 44.99 467.79 45 467.52 44.98C466.86 45.23 466.21 45.39 465.56 45.48C464.94 45.55 464.21 45.49 463.37 45.31C462.58 45.42 461.84 45.39 461.15 45.21C460.48 45.04 459.88 44.76 459.35 44.38C458.84 43.98 458.39 43.52 457.99 42.99C457.62 42.44 457.31 41.86 457.06 41.26C456.89 40 456.93 38.86 457.2 37.84C457.46 36.8 457.83 35.85 458.32 34.99C458.83 34.1 459.41 33.29 460.05 32.56C460.69 31.81 461.31 31.08 461.91 30.37C462.04 30.42 462.14 30.42 462.21 30.37C462.3 30.3 462.37 30.23 462.44 30.14C462.51 30.03 462.57 29.93 462.64 29.84C462.73 29.75 462.83 29.7 462.94 29.67C463.09 29.34 463.31 29.1 463.6 28.94C463.91 28.77 464.16 28.52 464.33 28.21C464.53 28.17 464.7 28.1 464.83 28.01C464.96 27.92 465.09 27.82 465.2 27.71C465.33 27.6 465.47 27.51 465.6 27.42C465.73 27.31 465.89 27.23 466.06 27.18L466.06 26.82C466.46 26.64 466.75 26.44 466.92 26.22C467.12 25.98 467.35 25.69 467.62 25.36C467.82 25.33 467.98 25.32 468.09 25.32C468.22 25.32 468.41 25.3 468.65 25.26C468.83 24.95 468.99 24.71 469.12 24.56C469.27 24.41 469.49 24.24 469.78 24.06C470.05 24.19 470.33 24.28 470.64 24.33C470.97 24.37 471.26 24.51 471.51 24.76C471.53 24.98 471.6 25.16 471.71 25.29C471.82 25.4 471.94 25.51 472.07 25.62C472.2 25.71 472.33 25.81 472.44 25.92C472.57 26.03 472.65 26.19 472.7 26.39C472.79 26.41 472.84 26.4 472.87 26.35C472.91 26.31 472.98 26.3 473.07 26.32C473.14 26.63 473.21 26.84 473.3 26.95C473.39 27.04 473.47 27.23 473.56 27.52C473.45 27.74 473.37 27.97 473.3 28.21C473.25 28.43 473.12 28.6 472.9 28.71C472.88 28.86 472.92 28.95 473.03 28.98C473.14 28.98 473.21 29.03 473.23 29.14C473.26 29.34 473.22 29.48 473.13 29.57C473.66 30.44 474.14 31.36 474.56 32.33C474.98 33.28 475.46 34.19 475.99 35.05ZM471.84 38.21C471.93 37.96 472.04 37.76 472.17 37.61C472.32 37.46 472.41 37.22 472.44 36.91C472.33 36.74 472.26 36.6 472.24 36.51C472.21 36.4 472.2 36.24 472.2 36.02C471.71 35.33 471.29 34.6 470.94 33.82C470.59 33.03 470.19 32.29 469.75 31.6C469.7 31.69 469.62 31.77 469.51 31.86C469.4 31.95 469.28 31.93 469.15 31.8C469.1 31.97 469.03 32.11 468.92 32.2C468.81 32.27 468.68 32.3 468.55 32.3C468.42 32.27 468.27 32.24 468.12 32.2C467.99 32.13 467.86 32.05 467.75 31.96C467.11 32.47 466.47 32.97 465.83 33.46C465.19 33.95 464.61 34.51 464.1 35.15C464.01 35.2 463.96 35.22 463.94 35.22C463.91 35.2 463.85 35.21 463.74 35.25C463.56 35.67 463.34 36.06 463.07 36.41C462.83 36.74 462.59 37.09 462.34 37.44C462.1 37.79 461.89 38.17 461.71 38.57C461.54 38.97 461.44 39.44 461.41 39.97C461.79 40.28 462.23 40.46 462.74 40.53C463.25 40.6 463.77 40.61 464.3 40.56C464.85 40.52 465.38 40.45 465.89 40.36C466.42 40.25 466.91 40.2 467.36 40.2C468.29 39.98 469.08 39.69 469.75 39.34C470.41 38.96 471.11 38.58 471.84 38.21ZM483.36 41.56C483.11 42.45 482.89 43.12 482.7 43.59C482.52 44.03 482.24 44.49 481.86 44.98C481.57 44.93 481.38 44.97 481.27 45.08C481.16 45.19 481.03 45.29 480.9 45.38C480.7 45.43 480.56 45.43 480.47 45.38C480.38 45.33 480.31 45.29 480.24 45.25C480.17 45.18 480.08 45.13 479.97 45.08C479.88 45.01 479.74 44.98 479.54 44.98C479.49 44.8 479.44 44.63 479.37 44.48C479.33 44.33 479.19 44.27 478.94 44.32C478.99 44.14 479 43.99 478.98 43.88C478.95 43.75 478.92 43.64 478.88 43.55C478.85 43.44 478.83 43.34 478.81 43.25C478.79 43.14 478.8 43.01 478.84 42.86C478.73 42.86 478.65 42.78 478.58 42.62C478.51 42.47 478.44 42.31 478.35 42.16C478.42 41.76 478.48 41.38 478.54 41.03C478.61 40.68 478.69 40.34 478.78 40.03C478.89 39.72 478.97 39.41 479.04 39.1C479.11 38.79 479.07 38.47 478.94 38.14C479.03 38.21 479.1 38.2 479.14 38.11C479.19 38 479.22 37.86 479.24 37.71C479.27 37.53 479.28 37.36 479.28 37.21C479.28 37.04 479.27 36.89 479.24 36.78C479.46 36.21 479.64 35.62 479.77 35.02C479.93 34.4 480.06 33.79 480.17 33.19C480.3 32.6 480.44 32.01 480.57 31.43C480.7 30.86 480.88 30.33 481.1 29.84C481.35 29.79 481.61 29.83 481.9 29.94C482.21 30.03 482.39 30.15 482.46 30.3C483.04 29.86 483.55 29.33 483.99 28.71C484.43 28.07 484.88 27.45 485.35 26.85C485.82 26.26 486.33 25.73 486.88 25.26C487.45 24.79 488.17 24.52 489.04 24.43C489.48 24.76 489.97 25.11 490.5 25.46C491.05 25.79 491.51 26.24 491.86 26.79C492.04 26.88 492.18 26.97 492.29 27.08C492.42 27.17 492.58 27.27 492.76 27.38L492.76 27.78C493.02 28.03 493.23 28.31 493.39 28.64C493.56 28.95 493.72 29.3 493.85 29.67C493.98 30.03 494.12 30.4 494.25 30.77C494.38 31.12 494.54 31.47 494.71 31.8C494.67 31.91 494.65 32.01 494.65 32.1C494.65 32.17 494.66 32.24 494.68 32.33C494.73 32.42 494.76 32.51 494.78 32.6C494.8 32.69 494.8 32.81 494.78 32.96C494.71 33.93 494.39 34.72 493.82 35.32C493.27 35.92 492.59 36.42 491.79 36.81C491 37.19 490.15 37.51 489.24 37.78C488.33 38.04 487.51 38.33 486.78 38.64C486.78 38.73 486.81 38.77 486.88 38.77C486.97 38.77 487 38.83 486.98 38.94C487.51 39.27 487.93 39.54 488.24 39.73C488.55 39.93 488.83 40.1 489.1 40.23C489.39 40.36 489.69 40.49 490 40.6C490.33 40.69 490.79 40.8 491.36 40.93C491.93 41.06 492.38 41.17 492.69 41.26C493.02 41.33 493.32 41.39 493.59 41.46C493.85 41.51 494.11 41.55 494.38 41.59C494.67 41.62 495.07 41.65 495.58 41.69C495.6 41.71 495.62 41.73 495.64 41.76C495.8 41.64 495.92 41.55 496.01 41.49C496.14 41.4 496.25 41.32 496.34 41.23C496.43 41.12 496.53 40.98 496.64 40.83C496.75 40.68 496.93 40.42 497.17 40.07L497.47 39.64L497.9 39.87C497.99 39.94 498.18 40 498.47 40.07C498.78 40.11 499.04 40.15 499.26 40.2C499.64 40.31 500 40.4 500.33 40.47C500.66 40.51 500.92 40.62 501.12 40.8L501.26 41.06C501.3 41.24 501.33 41.41 501.36 41.56C501.38 41.71 501.41 41.88 501.45 42.06C501.36 42.28 501.29 42.5 501.22 42.72C501.15 42.92 501.09 43.12 501.02 43.32C500.95 43.47 500.91 43.57 500.89 43.62C500.87 43.67 500.86 43.7 500.86 43.72C500.86 43.74 500.86 43.77 500.86 43.82C500.88 43.84 500.89 43.93 500.89 44.08L500.76 44.48C500.65 44.64 500.51 44.76 500.36 44.85C500.21 44.94 500.05 45.01 499.89 45.08C499.85 45.13 499.78 45.17 499.69 45.21C499.6 45.24 499.54 45.27 499.5 45.31L499.4 45.71L498.96 45.78C498.59 45.87 498.27 45.91 498 45.91L497.6 45.91C497.33 45.67 497.12 45.48 496.97 45.35C496.82 45.22 496.65 45.09 496.47 44.98C496.45 44.95 496.42 44.91 496.4 44.88C496.34 44.94 496.29 45.01 496.24 45.08C496.15 45.21 496.07 45.35 495.98 45.48C495.89 45.61 495.79 45.73 495.68 45.84C495.57 45.93 495.41 45.99 495.21 46.01C494.52 46.28 493.66 46.3 492.62 46.08C491.58 45.83 490.26 45.4 488.67 44.78C487.88 44.47 487.22 44.21 486.71 43.98C486.22 43.74 485.79 43.51 485.42 43.29C485.07 43.04 484.73 42.79 484.42 42.52C484.13 42.26 483.78 41.94 483.36 41.56ZM496.18 44.65C496.2 44.72 496.24 44.75 496.31 44.75C496.31 44.75 496.31 44.75 496.31 44.75C496.28 44.69 496.25 44.64 496.22 44.6C496.21 44.61 496.19 44.63 496.18 44.65ZM488.11 30.17C487.86 30.52 487.59 30.84 487.28 31.13C486.99 31.42 486.7 31.72 486.41 32.03C486.15 32.32 485.91 32.65 485.68 33.03C485.46 33.38 485.31 33.8 485.22 34.29C485.99 34.2 486.8 33.99 487.64 33.66C488.48 33.31 489.28 32.97 490.03 32.66C489.94 31.97 489.7 31.42 489.3 31C488.93 30.58 488.53 30.3 488.11 30.17ZM517.26 43.89C517.19 43.91 517.15 43.89 517.13 43.82C517.1 43.75 517.09 43.69 517.09 43.62C517.12 43.55 517.15 43.5 517.19 43.45C517.26 43.41 517.34 43.41 517.43 43.45C517.14 43.1 516.95 42.78 516.86 42.49C516.79 42.2 516.65 41.85 516.43 41.43C516.5 41.36 516.54 41.27 516.56 41.16C516.59 41.03 516.61 40.91 516.63 40.8C516.68 40.69 516.72 40.61 516.76 40.57C516.83 40.5 516.9 40.51 516.99 40.6C516.95 40.35 516.95 40.15 516.99 40C517.04 39.85 517.08 39.7 517.13 39.57C517.2 39.44 517.24 39.3 517.26 39.17C517.28 39.04 517.25 38.88 517.16 38.71C517.58 38.13 517.86 37.51 517.99 36.85C518.12 36.16 518.2 35.54 518.22 34.99C518.42 34.79 518.59 34.52 518.72 34.19C518.87 33.86 518.98 33.51 519.05 33.16C519.12 32.81 519.15 32.46 519.15 32.13C519.15 31.78 519.11 31.5 519.02 31.3C519.04 31.21 519.08 31.17 519.15 31.17C519.24 31.15 519.34 31.15 519.45 31.17C519.6 30.28 519.7 29.3 519.75 28.21C519.82 27.13 519.93 26.09 520.08 25.09C520.26 24.08 520.54 23.19 520.91 22.44C521.29 21.66 521.89 21.16 522.71 20.94C522.86 21.49 523.06 21.98 523.3 22.4C523.57 22.82 523.84 23.23 524.13 23.63C524.44 24.03 524.75 24.43 525.06 24.83C525.37 25.23 525.66 25.67 525.93 26.16C525.9 26.67 525.85 27.25 525.76 27.92C525.69 28.58 525.59 29.25 525.46 29.94C525.35 30.63 525.23 31.29 525.1 31.93C524.99 32.58 524.87 33.12 524.76 33.56C524.79 33.67 524.87 33.75 525 33.79C525.13 33.82 525.15 33.94 525.06 34.16C525.71 34.01 526.37 33.86 527.05 33.73C527.76 33.57 528.45 33.42 529.11 33.29C529.8 33.14 530.46 32.96 531.11 32.76C531.77 32.56 532.39 32.32 532.96 32.03C533.09 30.97 533.26 29.92 533.46 28.88C533.66 27.84 533.68 26.79 533.53 25.72C533.66 25.61 533.77 25.48 533.86 25.33C533.95 25.17 534.08 25.07 534.26 25.03C534.13 24.52 534.07 23.98 534.09 23.43C534.12 22.86 534.21 22.33 534.36 21.84C534.54 21.35 534.79 20.93 535.12 20.58C535.45 20.2 535.86 19.96 536.35 19.85C536.64 20.27 536.89 20.72 537.12 21.21C537.34 21.7 537.56 22.19 537.78 22.7C538 23.19 538.23 23.65 538.48 24.1C538.75 24.54 539.08 24.92 539.47 25.23C539.54 26 539.59 26.8 539.64 27.62C539.69 28.41 539.72 29.24 539.74 30.11C539.54 31.1 539.31 32.08 539.04 33.03C538.8 33.96 538.62 34.95 538.51 36.02C538.33 36.22 538.19 36.46 538.08 36.75C537.97 37.02 537.86 37.29 537.75 37.58C537.66 37.85 537.54 38.11 537.41 38.37C537.28 38.64 537.11 38.86 536.92 39.04C537.01 39.35 537.02 39.65 536.95 39.94C536.9 40.2 536.98 40.52 537.18 40.9C537.23 41.59 537.14 42.16 536.92 42.62C536.72 43.07 536.43 43.46 536.05 43.79C535.7 44.1 535.28 44.35 534.79 44.55C534.32 44.73 533.86 44.9 533.4 45.05C533.17 44.92 532.96 44.78 532.77 44.65C532.59 44.5 532.37 44.39 532.1 44.32L532.27 44.02C531.82 43.57 531.44 43.11 531.11 42.62C530.8 42.11 530.65 41.54 530.67 40.9C530.67 40.87 530.69 40.73 530.74 40.47C530.79 40.18 530.83 39.88 530.87 39.57C530.94 39.26 530.99 38.97 531.04 38.71C531.11 38.42 531.14 38.26 531.14 38.24C530.52 38.31 529.88 38.45 529.21 38.67C528.55 38.9 527.9 39.15 527.25 39.44C526.63 39.71 526.04 39.99 525.49 40.3C524.96 40.59 524.53 40.83 524.2 41.03C524.2 41.1 524.14 41.28 524.03 41.59C523.92 41.9 523.79 42.24 523.63 42.59C523.48 42.92 523.3 43.22 523.1 43.49C522.93 43.76 522.74 43.88 522.54 43.85C522.59 43.96 522.63 44.05 522.67 44.12C522.72 44.16 522.72 44.26 522.67 44.42C522.3 44.53 521.95 44.67 521.64 44.85C521.35 45.02 521.06 45.18 520.75 45.31C520.44 45.42 520.09 45.48 519.72 45.48C519.37 45.46 518.93 45.32 518.42 45.05C518.42 44.9 518.35 44.76 518.22 44.65C518.09 44.52 517.94 44.41 517.79 44.32C517.66 44.23 517.54 44.15 517.43 44.09C517.32 44.02 517.26 43.96 517.26 43.89ZM547.44 42.69C547.55 43.36 547.51 43.88 547.31 44.25C547.13 44.63 546.86 44.92 546.51 45.12C546.18 45.29 545.79 45.39 545.35 45.41C544.91 45.44 544.49 45.42 544.09 45.35C543.87 45.04 543.67 44.65 543.49 44.19C543.31 43.72 543.14 43.25 542.99 42.76C542.84 42.25 542.69 41.75 542.56 41.26C542.45 40.77 542.35 40.34 542.26 39.97C542.37 39.7 542.44 39.4 542.46 39.07C542.51 38.72 542.53 38.36 542.53 38.01C542.55 37.66 542.56 37.3 542.56 36.95C542.58 36.57 542.61 36.21 542.66 35.88C542.81 34.95 543.03 34.07 543.32 33.23C543.63 32.39 543.88 31.52 544.05 30.61C544.1 30.41 544.08 30.22 543.99 30.04C543.92 29.87 543.91 29.7 543.96 29.54C543.98 29.45 544.04 29.4 544.15 29.38C544.26 29.33 544.33 29.25 544.35 29.14C544.42 28.9 544.43 28.7 544.39 28.55C544.36 28.39 544.41 28.2 544.52 27.98C544.63 27.81 544.77 27.55 544.92 27.22C545.09 26.87 545.16 26.5 545.12 26.12C545.32 25.99 545.51 25.83 545.68 25.66C545.86 25.48 546.04 25.32 546.21 25.19C546.41 25.04 546.62 24.9 546.84 24.79C547.09 24.68 547.38 24.63 547.71 24.63C547.88 24.85 547.99 25.09 548.04 25.36C548.11 25.63 548.16 25.89 548.21 26.16C548.27 26.42 548.36 26.67 548.47 26.92C548.58 27.14 548.77 27.32 549.04 27.45C549.04 27.63 549.04 27.85 549.04 28.12C549.04 28.38 549.05 28.64 549.07 28.91C549.09 29.16 549.13 29.39 549.2 29.61C549.29 29.81 549.42 29.94 549.6 30.01C549.2 31.07 548.82 32.12 548.47 33.16C548.14 34.2 547.86 35.25 547.64 36.32C547.42 37.36 547.28 38.41 547.21 39.47C547.16 40.53 547.24 41.6 547.44 42.69ZM556.64 41.56C556.39 42.45 556.17 43.12 555.97 43.59C555.8 44.03 555.52 44.49 555.14 44.98C554.85 44.94 554.66 44.97 554.55 45.08C554.44 45.19 554.31 45.29 554.18 45.38C553.98 45.43 553.84 45.43 553.75 45.38C553.66 45.33 553.59 45.29 553.52 45.25C553.45 45.18 553.36 45.13 553.25 45.08C553.16 45.01 553.02 44.98 552.82 44.98C552.77 44.81 552.72 44.64 552.65 44.48C552.61 44.33 552.47 44.27 552.22 44.32C552.27 44.14 552.28 44 552.26 43.89C552.23 43.76 552.2 43.64 552.16 43.55C552.13 43.44 552.11 43.35 552.09 43.26C552.07 43.15 552.08 43.01 552.12 42.86C552.01 42.86 551.93 42.78 551.86 42.63C551.79 42.47 551.71 42.31 551.62 42.16C551.69 41.76 551.75 41.38 551.82 41.03C551.89 40.68 551.97 40.35 552.06 40.04C552.17 39.73 552.25 39.42 552.32 39.11C552.39 38.8 552.35 38.47 552.22 38.14C552.31 38.21 552.38 38.2 552.42 38.11C552.47 38 552.5 37.86 552.52 37.71C552.54 37.54 552.55 37.37 552.55 37.21C552.55 37.04 552.54 36.89 552.52 36.78C552.74 36.21 552.92 35.62 553.05 35.02C553.21 34.4 553.34 33.79 553.45 33.2C553.58 32.6 553.72 32.01 553.85 31.44C553.98 30.86 554.16 30.33 554.38 29.84C554.63 29.8 554.89 29.83 555.18 29.94C555.49 30.03 555.67 30.15 555.74 30.31C556.32 29.86 556.83 29.33 557.27 28.71C557.71 28.07 558.16 27.45 558.63 26.85C559.1 26.26 559.61 25.73 560.16 25.26C560.73 24.79 561.45 24.52 562.32 24.43C562.76 24.76 563.25 25.11 563.78 25.46C564.33 25.79 564.79 26.24 565.14 26.79C565.31 26.88 565.46 26.98 565.57 27.09C565.7 27.18 565.86 27.28 566.04 27.39L566.04 27.78C566.3 28.03 566.51 28.32 566.67 28.65C566.84 28.96 567 29.3 567.13 29.68C567.26 30.03 567.4 30.4 567.53 30.77C567.66 31.12 567.82 31.47 567.99 31.8C567.95 31.91 567.93 32.01 567.93 32.1C567.93 32.17 567.94 32.24 567.96 32.33C568.01 32.42 568.04 32.51 568.06 32.6C568.08 32.69 568.08 32.81 568.06 32.96C567.99 33.93 567.67 34.72 567.1 35.32C566.55 35.92 565.87 36.42 565.07 36.81C564.28 37.19 563.43 37.51 562.52 37.78C561.61 38.05 560.79 38.33 560.06 38.64C560.06 38.73 560.09 38.77 560.16 38.77C560.25 38.77 560.28 38.83 560.26 38.94C560.79 39.27 561.21 39.54 561.52 39.74C561.83 39.94 562.11 40.1 562.38 40.23C562.67 40.36 562.97 40.49 563.28 40.6C563.61 40.69 564.07 40.8 564.64 40.93C565.21 41.06 565.66 41.17 565.97 41.26C566.3 41.33 566.6 41.39 566.86 41.46C567.13 41.51 567.39 41.55 567.66 41.6C567.95 41.62 568.35 41.65 568.86 41.7C569.06 41.89 569.23 42.14 569.36 42.43C569.51 42.69 569.61 42.97 569.65 43.26C569.7 43.52 569.71 43.78 569.69 44.05C569.66 44.3 569.58 44.5 569.45 44.65C569.48 44.72 569.52 44.75 569.59 44.75C569.68 44.73 569.76 44.73 569.85 44.75C569.72 44.84 569.61 44.95 569.52 45.08C569.43 45.21 569.35 45.35 569.26 45.48C569.17 45.61 569.07 45.74 568.96 45.85C568.85 45.94 568.69 45.99 568.49 46.01C567.8 46.28 566.94 46.3 565.9 46.08C564.86 45.83 563.54 45.4 561.95 44.78C561.16 44.47 560.5 44.21 559.99 43.99C559.5 43.74 559.07 43.51 558.7 43.29C558.35 43.04 558.01 42.79 557.7 42.53C557.41 42.26 557.06 41.94 556.64 41.56ZM561.39 30.17C561.14 30.53 560.87 30.85 560.56 31.14C560.27 31.43 559.98 31.72 559.69 32.03C559.42 32.32 559.18 32.66 558.96 33.03C558.74 33.38 558.59 33.8 558.5 34.29C559.27 34.2 560.08 33.99 560.92 33.66C561.76 33.31 562.56 32.97 563.31 32.66C563.22 31.98 562.98 31.43 562.58 31C562.21 30.58 561.81 30.3 561.39 30.17ZM588.22 26.32C588.24 26.48 588.24 26.6 588.22 26.69C588.22 26.76 588.21 26.82 588.18 26.89C588.18 26.96 588.18 27.03 588.18 27.12C588.18 27.19 588.2 27.3 588.25 27.45C587.78 28.2 587.24 28.72 586.62 29.01C586.02 29.28 585.37 29.48 584.66 29.61C583.95 29.72 583.22 29.85 582.47 29.98C581.74 30.11 581.01 30.39 580.28 30.84C579.99 30.73 579.73 30.73 579.48 30.84C579.26 30.95 578.93 30.98 578.49 30.94C578.36 31.07 578.19 31.17 577.99 31.24C577.79 31.28 577.59 31.33 577.39 31.4C577.48 31.6 577.51 31.81 577.49 32.03C577.49 32.23 577.52 32.4 577.59 32.53C578.36 32.6 579.22 32.59 580.15 32.5C581.1 32.41 582.03 32.36 582.94 32.33C582.96 32.44 582.95 32.52 582.9 32.57C582.86 32.59 582.85 32.64 582.87 32.73C583.02 32.84 583.18 32.99 583.33 33.16C583.49 33.32 583.65 33.48 583.8 33.63C583.95 33.78 584.11 33.92 584.26 34.03C584.44 34.12 584.64 34.15 584.86 34.13C584.95 34.3 585 34.5 585.03 34.72C585.07 34.92 585.05 35.13 584.96 35.35C584.61 35.6 584.25 35.85 583.9 36.12C583.55 36.36 583.17 36.58 582.77 36.78C582.39 36.98 581.98 37.15 581.54 37.28C581.12 37.39 580.64 37.44 580.11 37.41C580 37.41 579.92 37.41 579.85 37.41C579.8 37.41 579.74 37.38 579.65 37.31C579.47 37.42 579.21 37.46 578.88 37.41C578.57 37.37 578.33 37.4 578.15 37.51C577.91 37.4 577.61 37.36 577.26 37.38C576.93 37.38 576.63 37.34 576.36 37.25C576.01 37.71 575.69 38.21 575.4 38.74C575.11 39.27 574.86 39.84 574.63 40.43C575.38 40.54 576 40.59 576.49 40.57C577 40.54 577.48 40.51 577.92 40.47C578.37 40.4 578.82 40.35 579.28 40.3C579.75 40.23 580.33 40.21 581.04 40.24C581.49 39.99 582.01 39.84 582.6 39.77C583.22 39.68 583.79 39.55 584.3 39.37C584.47 39.44 584.63 39.56 584.76 39.74C584.89 39.89 585.02 40.05 585.13 40.2C585.26 40.33 585.4 40.46 585.53 40.57C585.66 40.68 585.82 40.72 586.02 40.7C586.11 40.79 586.17 40.9 586.19 41.03C586.24 41.14 586.27 41.25 586.29 41.36C586.31 41.47 586.34 41.57 586.39 41.66C586.46 41.73 586.56 41.75 586.69 41.73C586.36 42.46 585.97 43.03 585.53 43.42C585.1 43.8 584.61 44.09 584.06 44.29C583.51 44.48 582.89 44.64 582.2 44.75C581.54 44.86 580.8 45 579.98 45.15C579.78 45.2 579.61 45.2 579.48 45.15C579.35 45.08 579.19 45.05 579.02 45.05C578.51 45.16 577.9 45.26 577.19 45.35C576.48 45.44 575.76 45.47 575.03 45.45C574.3 45.42 573.61 45.33 572.94 45.18C572.27 45.01 571.73 44.71 571.31 44.29C571.14 44.13 571.02 43.95 570.95 43.75C570.9 43.53 570.76 43.37 570.52 43.26C570.49 42.97 570.45 42.64 570.38 42.29C570.31 41.94 570.25 41.57 570.19 41.2C570.12 40.8 570.07 40.41 570.02 40.04C570 39.66 570.02 39.32 570.09 39.01C570.16 38.68 570.29 38.38 570.48 38.11C570.71 37.84 570.79 37.56 570.72 37.25C570.83 37.22 570.89 37.17 570.92 37.08C570.94 36.97 571.03 36.92 571.18 36.95C571.31 36.55 571.46 36.17 571.61 35.82C571.77 35.47 571.93 35.12 572.08 34.79C572.25 34.46 572.42 34.12 572.58 33.79C572.75 33.44 572.92 33.05 573.07 32.63C572.76 32.34 572.53 32.03 572.38 31.7C572.25 31.35 572.15 31 572.08 30.67C572.01 30.32 571.96 29.96 571.91 29.61C571.87 29.24 571.79 28.86 571.68 28.48C571.9 28.15 572.17 27.88 572.48 27.68C572.81 27.46 573.16 27.28 573.54 27.15C573.91 27.02 574.32 26.91 574.77 26.82C575.21 26.73 575.67 26.63 576.16 26.52C577.05 26.23 577.83 26.01 578.52 25.86C579.23 25.71 579.91 25.58 580.58 25.49C581.27 25.38 581.97 25.28 582.7 25.19C583.43 25.1 584.26 24.97 585.19 24.8C585.39 24.99 585.58 25.09 585.76 25.09C585.85 24.9 585.95 24.84 586.06 24.93C586.19 25 586.25 24.93 586.22 24.73C586.44 25.1 586.72 25.42 587.05 25.69C587.4 25.94 587.79 26.15 588.22 26.32ZM602.33 28.75L602.39 28.58C602.35 28.29 602.3 28.12 602.23 28.05C602.38 27.65 602.49 27.26 602.56 26.89C602.65 26.49 602.71 26.11 602.76 25.76C602.8 25.45 602.84 25.16 602.89 24.9C602.96 24.63 603.03 24.38 603.12 24.13C603.5 24.04 603.78 23.89 603.95 23.67C604.15 23.42 604.31 23.21 604.42 23.04C604.82 23.01 605.07 23.07 605.18 23.2C605.31 23.33 605.46 23.56 605.61 23.87C605.72 24.11 605.88 24.37 606.08 24.66C606.28 24.93 606.58 25.14 606.97 25.29C607.04 25.54 607.12 25.77 607.21 25.99C607.3 26.21 607.4 26.44 607.51 26.69C607.7 27.16 607.89 27.64 608.07 28.15C608.25 28.64 608.35 29.1 608.37 29.54C608.1 30.05 607.89 30.64 607.74 31.3C607.61 31.97 607.52 32.64 607.47 33.33C607.45 34 607.47 34.64 607.54 35.26C607.61 35.88 607.72 36.4 607.87 36.82L608.07 37.35L608.8 37.28C609.6 37.08 610.32 36.86 610.96 36.62C611.6 36.35 612.2 36.04 612.75 35.69C613.3 35.34 613.84 34.94 614.35 34.49C614.86 34.02 615.39 33.48 615.94 32.87C616.47 32.25 616.95 31.55 617.37 30.77C617.79 29.98 618.13 29.16 618.4 28.32C618.69 27.47 618.91 26.63 619.06 25.79C619.21 24.95 619.31 24.17 619.36 23.44C619.78 23.24 620.01 22.92 620.06 22.47L619.96 22.04C619.89 21.93 619.86 21.83 619.86 21.74C619.88 21.63 619.91 21.53 619.96 21.44C620.13 20.93 620.51 20.56 621.09 20.31C621.48 20.58 621.85 20.87 622.18 21.18C622.53 21.49 622.85 21.8 623.14 22.11C623.19 22.7 623.28 23.22 623.41 23.67C623.54 24.09 623.69 24.5 623.84 24.9C623.99 25.27 624.13 25.64 624.24 25.99C624.37 26.34 624.46 26.78 624.51 27.29C624.28 27.95 624.12 28.58 624.01 29.18C623.92 29.75 623.83 30.36 623.74 31.01L623.68 31.37C623.28 32.06 622.88 32.77 622.48 33.5C622.11 34.21 621.8 34.83 621.55 35.36C621.42 35.49 621.3 35.64 621.19 35.82C621.1 36 621.01 36.18 620.92 36.35C620.87 36.42 620.81 36.53 620.72 36.68C620.65 36.84 620.59 36.95 620.52 37.02L619.72 36.72L619.53 37.75L618.99 37.88L618.6 38.34C618.09 39.23 617.54 39.97 616.97 40.57C616.42 41.16 615.79 41.69 615.08 42.16C614.39 42.63 613.61 43.07 612.72 43.49C611.85 43.89 610.86 44.32 609.73 44.78C609.29 44.72 608.9 44.69 608.57 44.69C608.26 44.66 607.95 44.64 607.64 44.62C607.33 44.62 607.03 44.61 606.74 44.59C606.45 44.56 606.12 44.53 605.75 44.49C605.66 44.29 605.53 44.14 605.38 44.05C605.23 43.96 605.08 43.92 604.95 43.92C604.5 43.7 604.17 43.39 603.95 42.99C603.73 42.59 603.5 42.15 603.26 41.66C603.15 41.4 603.02 41.14 602.89 40.87C602.78 40.6 602.63 40.35 602.46 40.1L603.12 39.9L602.26 38.91C602.19 38.84 602.12 38.78 602.03 38.71C601.96 38.64 601.9 38.57 601.83 38.48L601.83 37.85C601.74 36.03 601.7 34.36 601.7 32.83C601.72 31.28 601.93 29.92 602.33 28.75ZM624.17 30.08C624.33 29.61 624.57 29.21 624.9 28.88C625.26 28.55 625.64 28.27 626.03 28.05C626.45 27.81 626.88 27.61 627.33 27.45C627.77 27.3 628.19 27.16 628.59 27.05C629.48 26.68 630.42 26.32 631.41 25.99C632.43 25.64 633.46 25.33 634.5 25.06C635.56 24.79 636.64 24.63 637.75 24.56C638.86 24.47 640.02 24.61 641.24 24.96C641.31 25.19 641.41 25.4 641.54 25.59C641.67 25.79 641.81 25.99 641.94 26.19C642.09 26.39 642.23 26.59 642.34 26.79C642.45 26.97 642.51 27.16 642.54 27.35C642.76 27.55 642.94 27.77 643.07 28.02C643.2 28.24 643.22 28.54 643.13 28.91C642.91 29.09 642.69 29.26 642.47 29.41C642.27 29.54 642.05 29.67 641.8 29.78C640.99 29.58 640.16 29.51 639.31 29.58C638.47 29.65 637.72 29.7 637.06 29.74C636.86 29.55 636.62 29.45 636.33 29.45C636.06 29.45 635.77 29.49 635.46 29.58C635.17 29.67 634.88 29.75 634.57 29.84C634.28 29.93 634 29.96 633.74 29.91C633.51 30.09 633.24 30.21 632.91 30.28C632.6 30.32 632.25 30.36 631.88 30.41C631.85 30.52 631.87 30.59 631.94 30.64C632.01 30.66 632.02 30.73 631.98 30.84C632.11 30.99 632.28 31.1 632.47 31.17C632.7 31.24 632.92 31.3 633.14 31.37C633.38 31.44 633.59 31.53 633.77 31.64C633.95 31.73 634.07 31.88 634.13 32.1C634.46 32.1 634.75 32.18 635 32.33C635.24 32.49 635.44 32.68 635.6 32.9C635.75 33.12 635.86 33.36 635.93 33.63C636.02 33.87 636.06 34.09 636.06 34.29C636.13 34.47 636.2 34.55 636.29 34.53C636.38 34.5 636.48 34.55 636.59 34.66C636.66 34.95 636.82 35.25 637.09 35.56C637.36 35.85 637.57 36.17 637.72 36.52C637.77 37.07 637.8 37.57 637.82 38.01C637.84 38.43 637.76 38.86 637.59 39.31C637.26 40.13 636.79 40.86 636.19 41.5C635.62 42.14 634.95 42.72 634.2 43.23C633.47 43.72 632.69 44.14 631.84 44.49C631 44.84 630.18 45.14 629.39 45.38C629.3 45.36 629.21 45.36 629.12 45.38C629.03 45.41 629.01 45.35 629.05 45.22C628.88 45.37 628.68 45.47 628.46 45.52C628.26 45.56 628.04 45.58 627.79 45.58C627.55 45.56 627.3 45.54 627.03 45.52C626.78 45.49 626.55 45.5 626.33 45.55C626.18 45.4 626.03 45.25 625.9 45.12C625.79 44.96 625.7 44.77 625.63 44.55C625.52 44.55 625.47 44.5 625.47 44.39C625.49 44.28 625.46 44.22 625.37 44.22C625.5 44 625.56 43.88 625.53 43.86C625.53 43.81 625.5 43.78 625.44 43.76C625.39 43.73 625.35 43.71 625.3 43.69C625.26 43.64 625.25 43.59 625.27 43.52C625.36 43.35 625.39 43.15 625.37 42.93C625.35 42.68 625.33 42.44 625.3 42.2C625.28 41.95 625.29 41.72 625.34 41.5C625.41 41.28 625.57 41.1 625.83 40.97C626.58 41.06 627.29 41.03 627.96 40.9C628.65 40.75 629.29 40.54 629.88 40.27C630.48 40 631.05 39.72 631.58 39.41C632.13 39.1 632.67 38.82 633.2 38.58C633.27 38.38 633.36 38.21 633.47 38.08C633.6 37.95 633.74 37.82 633.87 37.71C634 37.6 634.12 37.48 634.23 37.35C634.34 37.22 634.42 37.05 634.47 36.85C634.49 36.7 634.44 36.61 634.33 36.58C634.24 36.54 634.2 36.45 634.2 36.32L633.84 36.22C633.41 35.97 632.94 35.77 632.41 35.62C631.88 35.45 631.42 35.26 631.05 35.06C630.8 35.19 630.57 35.23 630.35 35.16C630.15 35.09 629.88 35.03 629.55 34.96C628.8 34.91 628.07 34.83 627.36 34.72C626.67 34.61 626.01 34.42 625.37 34.13C625.32 34.02 625.27 33.92 625.2 33.83C625.13 33.74 625.01 33.72 624.84 33.76C624.71 33.59 624.57 33.42 624.44 33.26C624.31 33.09 624.18 32.9 624.07 32.7C624.12 32.43 624.15 32.21 624.17 32.04C624.2 31.84 624.13 31.65 623.97 31.47C624.06 31.18 624.13 30.95 624.17 30.77C624.22 30.6 624.22 30.37 624.17 30.08ZM644.13 40.8L644.26 41.07C644.31 41.24 644.34 41.41 644.36 41.57C644.38 41.72 644.41 41.89 644.46 42.06C644.37 42.29 644.3 42.51 644.23 42.73C644.16 42.93 644.1 43.13 644.03 43.32C643.96 43.48 643.92 43.58 643.9 43.62C643.87 43.67 643.86 43.7 643.86 43.72C643.86 43.75 643.86 43.78 643.86 43.82C643.89 43.85 643.9 43.94 643.9 44.09L643.76 44.49C643.65 44.64 643.52 44.76 643.36 44.85C643.21 44.94 643.05 45.02 642.9 45.08C642.85 45.13 642.79 45.17 642.7 45.22C642.61 45.24 642.55 45.27 642.5 45.32L642.4 45.72L641.97 45.78C641.6 45.87 641.28 45.91 641.01 45.91L640.61 45.91C640.34 45.67 640.13 45.48 639.98 45.35C639.83 45.22 639.66 45.09 639.48 44.98C639.26 44.67 639.14 44.45 639.11 44.32C639.09 44.17 639.06 44.02 639.02 43.89C638.97 43.6 638.92 43.41 638.85 43.32L638.38 42.86L638.78 42.56L638.42 41.93C638.69 41.73 638.89 41.59 639.02 41.5C639.15 41.41 639.26 41.32 639.35 41.23C639.44 41.12 639.54 40.99 639.65 40.83C639.76 40.68 639.93 40.42 640.18 40.07L640.48 39.64L640.91 39.87C641 39.94 641.18 40 641.47 40.07C641.78 40.12 642.05 40.16 642.27 40.2C642.64 40.31 643 40.4 643.33 40.47C643.66 40.52 643.93 40.63 644.13 40.8Z"></path><path id="Layer" class="shp1" d="M704 14L864 14L864 53L704 53L704 14Z"></path><path id="Layer" fill-rule="evenodd" class="shp2" d="M730.08 36.46L730.99 32.29L739.33 32.29L737.05 43.15C734.77 43.89 732.4 44.26 729.93 44.26C727.55 44.26 725.7 43.57 724.39 42.18C723.08 40.8 722.42 38.84 722.42 36.29C722.42 33.86 722.92 31.66 723.93 29.7C724.93 27.74 726.3 26.25 728.04 25.23C729.79 24.2 731.83 23.69 734.14 23.69C736.57 23.69 738.61 24.18 740.26 25.15L738.25 29.37C736.86 28.55 735.46 28.14 734.07 28.14C732.87 28.14 731.8 28.47 730.87 29.14C729.95 29.8 729.21 30.78 728.66 32.07C728.11 33.36 727.84 34.74 727.84 36.21C727.84 38.62 728.79 39.82 730.69 39.82C731.26 39.82 731.87 39.76 732.51 39.63L733.21 36.46L730.08 36.46ZM747.82 44.26C745.89 44.26 744.39 43.72 743.31 42.65C742.24 41.56 741.7 40.06 741.7 38.14C741.7 36.21 742.08 34.48 742.83 32.94C743.6 31.39 744.64 30.22 745.96 29.43C747.29 28.62 748.83 28.22 750.57 28.22C752.3 28.22 753.67 28.61 754.66 29.4C755.65 30.19 756.15 31.23 756.15 32.53C756.15 34.36 755.43 35.77 754 36.76C752.58 37.73 750.52 38.22 747.82 38.22L747.02 38.22L747.02 38.44C747.02 39.79 747.77 40.46 749.26 40.46C749.98 40.46 750.69 40.36 751.38 40.15C752.07 39.93 752.86 39.59 753.74 39.12L753.74 42.87C752.72 43.39 751.77 43.75 750.89 43.96C750 44.16 748.98 44.26 747.82 44.26ZM749.98 31.81C749.43 31.81 748.91 32.13 748.43 32.76C747.94 33.39 747.65 34.11 747.55 34.91L747.95 34.91C748.94 34.91 749.72 34.72 750.29 34.35C750.85 33.97 751.13 33.47 751.13 32.85C751.13 32.56 751.04 32.31 750.86 32.11C750.68 31.91 750.39 31.81 749.98 31.81ZM764.52 40.01C765.12 40.01 765.95 39.8 767.02 39.37L767.02 43.35C765.78 43.96 764.23 44.26 762.37 44.26C761.02 44.26 760 43.97 759.29 43.4C758.6 42.82 758.26 41.87 758.26 40.54C758.26 39.85 758.37 38.99 758.58 37.97L759.73 32.48L757.63 32.48L758.19 29.88L761.17 28.68L763.04 25.39L766.57 25.39L765.9 28.5L769.84 28.5L768.97 32.48L765.02 32.48L763.88 37.71C763.73 38.42 763.66 38.9 763.66 39.15C763.66 39.72 763.95 40.01 764.52 40.01ZM793.94 29.99C793.94 32.28 793.16 34.09 791.59 35.4C790.03 36.71 787.89 37.36 785.18 37.36L784 37.36L782.63 43.99L777.29 43.99L781.51 24L786.61 24C788.97 24 790.78 24.52 792.04 25.56C793.31 26.59 793.94 28.06 793.94 29.99ZM785.94 28.36L784.96 32.98L785.82 32.98C786.65 32.98 787.32 32.72 787.83 32.19C788.34 31.65 788.59 30.97 788.59 30.15C788.59 29.62 788.43 29.18 788.1 28.85C787.77 28.52 787.32 28.36 786.75 28.36L785.94 28.36ZM806.6 28.22C807.11 28.22 807.48 28.26 807.69 28.33L806.54 33.57C806.05 33.37 805.49 33.27 804.86 33.27C803.93 33.27 803.18 33.59 802.61 34.24C802.05 34.88 801.63 35.86 801.34 37.18L799.89 43.99L794.6 43.99L797.86 28.5L802.09 28.5L801.84 31.08L801.95 31.08C802.54 30.06 803.19 29.33 803.88 28.89C804.57 28.44 805.48 28.22 806.6 28.22ZM815.42 28.5L812.12 43.99L806.83 43.99L810.1 28.5L815.42 28.5ZM810.74 25.09C810.74 24.16 811.01 23.45 811.55 22.96C812.1 22.48 812.86 22.24 813.83 22.24C814.66 22.24 815.3 22.41 815.75 22.74C816.2 23.07 816.43 23.54 816.43 24.16C816.43 25.07 816.17 25.78 815.64 26.28C815.11 26.77 814.34 27.02 813.35 27.02C811.61 27.02 810.74 26.38 810.74 25.09ZM822.54 44.26C820.73 44.26 819.31 43.71 818.29 42.62C817.28 41.52 816.77 39.96 816.77 37.95C816.77 36.12 817.12 34.46 817.81 32.97C818.51 31.48 819.49 30.31 820.75 29.48C822.02 28.64 823.45 28.22 825.06 28.22C826.83 28.22 828.5 28.59 830.07 29.32L828.39 33.24C827.18 32.69 826.15 32.42 825.32 32.42C824.75 32.42 824.23 32.64 823.74 33.08C823.26 33.51 822.86 34.17 822.55 35.05C822.24 35.92 822.09 36.77 822.09 37.6C822.09 38.43 822.23 39.05 822.5 39.44C822.77 39.82 823.21 40.01 823.8 40.01C824.45 40.01 825.09 39.91 825.7 39.7C826.32 39.49 826.98 39.2 827.67 38.83L827.67 43.03C826.94 43.43 826.17 43.74 825.36 43.95C824.55 44.16 823.61 44.26 822.54 44.26ZM837.01 44.26C835.08 44.26 833.57 43.72 832.49 42.65C831.42 41.56 830.88 40.06 830.88 38.14C830.88 36.21 831.26 34.48 832.02 32.94C832.78 31.39 833.82 30.22 835.15 29.43C836.48 28.62 838.01 28.22 839.75 28.22C841.48 28.22 842.85 28.61 843.84 29.4C844.83 30.19 845.33 31.23 845.33 32.53C845.33 34.36 844.62 35.77 843.19 36.76C841.76 37.73 839.7 38.22 837.01 38.22L836.2 38.22L836.2 38.44C836.2 39.79 836.95 40.46 838.44 40.46C839.16 40.46 839.87 40.36 840.56 40.15C841.25 39.93 842.04 39.59 842.93 39.12L842.93 42.87C841.9 43.39 840.95 43.75 840.07 43.96C839.18 44.16 838.16 44.26 837.01 44.26ZM839.17 31.81C838.61 31.81 838.09 32.13 837.61 32.76C837.12 33.39 836.83 34.11 836.73 34.91L837.13 34.91C838.12 34.91 838.9 34.72 839.47 34.35C840.03 33.97 840.31 33.47 840.31 32.85C840.31 32.56 840.22 32.31 840.04 32.11C839.86 31.91 839.57 31.81 839.17 31.81Z"></path></svg> 